<svg width="22" height="22" viewBox="0 0 22 22" fill="none" xmlns="http://www.w3.org/2000/svg">
<path d="M10.9987 5.8642C10.6508 5.86076 10.3662 5.5727 10.3662 5.22482C10.3662 4.8742 10.655 4.58545 11.0056 4.58545C11.3562 4.58545 11.645 4.8742 11.645 5.22482C11.645 5.57545 11.3562 5.8642 11.0056 5.8642C11.0035 5.8642 11.0008 5.8642 10.9987 5.8642Z" fill="#716C6C"/>
<path d="M13.4719 18.0606H3.29312C2.9425 18.0606 2.65375 17.7719 2.65375 17.4213V4.58564C2.65375 4.23502 2.9425 3.94627 3.29312 3.94627H18.6931C19.0437 3.94627 19.3325 4.23502 19.3325 4.58564V6.51065H4.57875C4.22606 6.51065 3.93594 6.80077 3.93594 7.15346C3.93594 7.50615 4.22606 7.79627 4.57875 7.79627H19.3394V18.2C19.3394 18.5527 19.6295 18.8428 19.9822 18.8428C20.3349 18.8428 20.625 18.5527 20.625 18.2V4.58564C20.625 3.52964 19.756 2.66064 18.7 2.66064H3.29312C2.23987 2.66408 1.375 3.53239 1.375 4.58564V17.4144C1.375 18.4704 2.244 19.3394 3.3 19.3394H13.4719C13.8246 19.3394 14.1147 19.0493 14.1147 18.6966C14.1147 18.3439 13.8246 18.0538 13.4719 18.0538V18.0606Z" fill="#716C6C"/>
<path d="M13.4719 18.0606H3.29312C2.9425 18.0606 2.65375 17.7719 2.65375 17.4213V4.58564C2.65375 4.23502 2.9425 3.94627 3.29312 3.94627H18.6931C19.0437 3.94627 19.3325 4.23502 19.3325 4.58564V6.51065H4.57875C4.22606 6.51065 3.93594 6.80077 3.93594 7.15346C3.93594 7.50615 4.22606 7.79627 4.57875 7.79627H19.3394V18.2C19.3394 18.5527 19.6295 18.8428 19.9822 18.8428C20.3349 18.8428 20.625 18.5527 20.625 18.2V4.58564C20.625 3.52964 19.756 2.66064 18.7 2.66064H3.29312C2.23987 2.66408 1.375 3.53239 1.375 4.58564V17.4144C1.375 18.4704 2.244 19.3394 3.3 19.3394H13.4719C13.8246 19.3394 14.1147 19.0493 14.1147 18.6966C14.1147 18.3439 13.8246 18.0538 13.4719 18.0538V18.0606Z" fill="#716C6C"/>
<path d="M7.7897 9.06809C7.7897 8.71746 7.50095 8.42871 7.15032 8.42871H4.57907C4.22845 8.42871 3.9397 8.71746 3.9397 9.06809V11.6325C3.9397 11.9831 4.22845 12.2718 4.57907 12.2718H7.15032C7.50095 12.2718 7.7897 11.9831 7.7897 11.6325V9.06809ZM6.50407 11H5.22532V9.71434H6.50407V11Z" fill="#716C6C"/>
<path d="M7.15032 12.9248H4.57907C4.22845 12.9248 3.9397 13.2136 3.9397 13.5642V16.1286C3.9397 16.4792 4.22845 16.7679 4.57907 16.7679H7.15032C7.50095 16.7679 7.7897 16.4792 7.7897 16.1286V13.5642C7.7897 13.2136 7.50095 12.9248 7.15032 12.9248ZM6.51095 15.4892H5.22532V14.2036H6.50407L6.51095 15.4892Z" fill="#716C6C"/>
<path d="M12.2851 8.42871H9.71384C9.36321 8.42871 9.07446 8.71746 9.07446 9.06809V11.6325C9.07446 11.9831 9.36321 12.2718 9.71384 12.2718H12.2782C12.6288 12.2718 12.9176 11.9831 12.9176 11.6325V9.06809C12.9176 8.72021 12.633 8.43215 12.2851 8.42871ZM11.6388 11H10.3601V9.71434H11.6457L11.6388 11Z" fill="#716C6C"/>
<path d="M17.4225 8.42871H14.8513C14.5007 8.42871 14.2119 8.71746 14.2119 9.06809V11.6325C14.2119 11.9831 14.5007 12.2718 14.8513 12.2718H17.4157C17.7663 12.2718 18.055 11.9831 18.055 11.6325V9.06809C18.055 8.72021 17.7704 8.43215 17.4225 8.42871ZM16.7763 11H15.4975V9.71434H16.7832L16.7763 11Z" fill="#716C6C"/>
<path d="M17.4225 12.9238H14.8513C14.5007 12.9238 14.2119 13.2126 14.2119 13.5632V16.1276C14.2119 16.4782 14.5007 16.767 14.8513 16.767H17.4157C17.7663 16.767 18.055 16.4782 18.055 16.1276V13.5632C18.055 13.2153 17.7704 12.9273 17.4225 12.9238ZM16.7763 15.4951H15.4975V14.2095H16.7832L16.7763 15.4951Z" fill="#716C6C"/>
<path d="M14.8513 11.6393C15.2019 11.6393 15.4907 11.3505 15.4907 10.9999V9.7143H16.7763V10.9999C16.7763 11.3526 17.0664 11.6427 17.4191 11.6427C17.7718 11.6427 18.0619 11.3526 18.0619 10.9999V9.07492C18.0619 8.7243 17.7732 8.43555 17.4225 8.43555H14.8513C14.5007 8.43555 14.2119 8.7243 14.2119 9.07492V10.9999C14.2119 11.3505 14.5007 11.6393 14.8513 11.6393Z" fill="#716C6C"/>
<path d="M12.2851 12.9248H9.71384C9.36321 12.9248 9.07446 13.2136 9.07446 13.5642V16.1286C9.07446 16.4792 9.36321 16.7679 9.71384 16.7679H12.2782C12.6288 16.7679 12.9176 16.4792 12.9176 16.1286V13.5642C12.9176 13.2163 12.633 12.9282 12.2851 12.9248ZM11.6457 15.4892H10.3601V14.2036H11.6457V15.4892Z" fill="#716C6C"/>
</svg>
