<svg width="72" height="72" viewBox="0 0 72 72" fill="none" xmlns="http://www.w3.org/2000/svg">
<path d="M35.9957 19.1923C34.8572 19.1811 33.9257 18.2383 33.9257 17.0998C33.9257 15.9523 34.8707 15.0073 36.0182 15.0073C37.1657 15.0073 38.1107 15.9523 38.1107 17.0998C38.1107 18.2473 37.1657 19.1923 36.0182 19.1923C36.0114 19.1923 36.0024 19.1923 35.9957 19.1923Z" fill="#212121"/>
<path d="M65.3961 59.1303L10.7774 59.1078C9.62988 59.1078 8.68488 58.1628 8.68488 57.0153V15.0078C8.68488 13.8603 9.62988 12.9153 10.7774 12.9153H61.1774C62.3249 12.9153 63.2699 13.8603 63.2699 15.0078V21.3078H14.9849C13.8306 21.3078 12.8811 22.2573 12.8811 23.4115C12.8811 24.5658 13.8306 25.5153 14.9849 25.5153H63.2924V61.2069C63.2924 62.3612 64.2419 63.3107 65.3961 63.3107C66.5504 63.3107 67.4999 62.3612 67.4999 61.2069V15.0078C67.4999 11.5518 64.6559 8.70776 61.1999 8.70776H10.7774C7.33038 8.71901 4.49988 11.5608 4.49988 15.0078V56.9928C4.49988 60.4488 7.34388 63.2928 10.7999 63.2928L65.3961 63.3153C66.5504 63.3153 67.4999 62.3658 67.4999 61.2115C67.4999 60.0573 66.5504 59.1078 65.3961 59.1078V59.1303Z" fill="#212121"/>
<path d="M25.4934 29.677C25.4934 28.5295 24.5484 27.5845 23.4009 27.5845H14.9859C13.8384 27.5845 12.8934 28.5295 12.8934 29.677V38.0695C12.8934 39.217 13.8384 40.162 14.9859 40.162H23.4009C24.5484 40.162 25.4934 39.217 25.4934 38.0695V29.677ZM21.2859 35.9995H17.1009V31.792H21.2859V35.9995Z" fill="#212121"/>
<path d="M23.4009 42.2996H14.9859C13.8384 42.2996 12.8934 43.2446 12.8934 44.3921V52.7846C12.8934 53.9321 13.8384 54.8771 14.9859 54.8771H23.4009C24.5484 54.8771 25.4934 53.9321 25.4934 52.7846V44.3921C25.4934 43.2446 24.5484 42.2996 23.4009 42.2996ZM21.3084 50.6921H17.1009V46.4846H21.2859L21.3084 50.6921Z" fill="#212121"/>
<path d="M40.2056 27.5845H31.7906C30.6431 27.5845 29.6981 28.5295 29.6981 29.677V38.0695C29.6981 39.217 30.6431 40.162 31.7906 40.162H40.1831C41.3306 40.162 42.2756 39.217 42.2756 38.0695V29.677C42.2756 28.5385 41.3441 27.5957 40.2056 27.5845ZM38.0906 35.9995H33.9056V31.792H38.1131L38.0906 35.9995Z" fill="#212121"/>
<path d="M57.0195 27.5845H48.6045C47.457 27.5845 46.512 28.5295 46.512 29.677V38.0695C46.512 39.217 47.457 40.162 48.6045 40.162H56.997C58.1445 40.162 59.0895 39.217 59.0895 38.0695V29.677C59.0895 28.5385 58.158 27.5957 57.0195 27.5845ZM54.9045 35.9995H50.7195V31.792H54.927L54.9045 35.9995Z" fill="#212121"/>
<path d="M40.2056 42.2996H31.7906C30.6431 42.2996 29.6981 43.2446 29.6981 44.3921V52.7846C29.6981 53.9321 30.6431 54.8771 31.7906 54.8771H40.1831C41.3306 54.8771 42.2756 53.9321 42.2756 52.7846V44.3921C42.2756 43.2536 41.3441 42.3108 40.2056 42.2996ZM38.1131 50.6921H33.9056V46.4846H38.1131V50.6921Z" fill="#212121"/>
<path d="M57.0195 42.2996H48.6045C47.457 42.2996 46.512 43.2446 46.512 44.3921V52.7846C46.512 53.9321 47.457 54.8771 48.6045 54.8771H56.997C58.1445 54.8771 59.0895 53.9321 59.0895 52.7846V44.3921C59.0895 43.2536 58.158 42.3108 57.0195 42.2996ZM54.927 50.6921H50.7195V46.4846H54.927V50.6921Z" fill="#212121"/>
</svg>
