<svg width="103" height="103" viewBox="0 0 103 103" fill="none" xmlns="http://www.w3.org/2000/svg">
<path d="M23.0746 45.4349H28.538V32.422C28.538 19.4285 39.0853 8.85748 52.0743 8.85748C65.0633 8.85748 75.6205 19.4355 75.6205 32.4373C75.6205 34.3094 74.0981 35.8267 72.2261 35.8267C70.3542 35.8267 68.8343 34.3094 68.8343 32.4373C68.8343 23.1732 61.3231 15.6363 52.072 15.6363C42.8208 15.6363 35.3095 23.1663 35.3095 32.422V45.4349H81.0336C82.9055 45.4349 84.4545 46.9217 84.4545 48.7937V88.1106C84.4545 92.783 80.6218 96.5807 75.9495 96.5807H28.1589C23.4865 96.5807 19.7144 92.783 19.7144 88.1106V48.7937C19.7144 46.9217 21.2026 45.4349 23.0746 45.4349ZM26.486 88.1106C26.486 89.0453 27.2242 89.8092 28.1589 89.8092H75.9495C76.8839 89.8092 77.683 89.0453 77.683 88.1106V52.2065H26.486V88.1106Z" fill="#253D95" stroke="#253D95" stroke-width="0.0169488" stroke-miterlimit="2" stroke-linejoin="round"/>
<path d="M52.0874 81.1626C50.2154 81.1626 48.7016 79.6452 48.7016 77.7733V65.5711C48.7016 63.6992 50.2155 62.1818 52.0874 62.1818C53.9593 62.1818 55.4732 63.6992 55.4732 65.5711V77.7733C55.4732 79.6452 53.9594 81.1626 52.0874 81.1626Z" fill="#253D95" stroke="#253D95" stroke-width="0.0169488" stroke-miterlimit="2" stroke-linejoin="round"/>
</svg>
