<?xml version="1.0" encoding="utf-8"?>
<!-- Generator: Adobe Illustrator 26.0.2, SVG Export Plug-In . SVG Version: 6.00 Build 0)  -->
<svg version="1.1" id="Capa_1" xmlns="http://www.w3.org/2000/svg" xmlns:xlink="http://www.w3.org/1999/xlink" x="0px" y="0px"
	 viewBox="0 0 127 127" style="enable-background:new 0 0 127 127;" xml:space="preserve">
<style type="text/css">
	.st0{fill:#C4C4C4;}
</style>
<path class="st0" d="M64.1,37.8c-1.7,0-3.1-1.4-3.1-3.1c0-1.7,1.4-3.1,3.1-3.1c1.7,0,3.1,1.4,3.1,3.1C67.3,36.4,65.9,37.8,64.1,37.8
	C64.2,37.8,64.2,37.8,64.1,37.8z"/>
<path class="st0" d="M70.4,97.7H26.3c-1.7,0-3.1-1.4-3.1-3.1V31.5c0-1.7,1.4-3.1,3.1-3.1H102c1.7,0,3.1,1.4,3.1,3.1V41H32.6
	c-1.7,0-3.2,1.4-3.2,3.2c0,1.7,1.4,3.2,3.2,3.2h72.5V63c0,1.7,1.4,3.2,3.2,3.2c1.7,0,3.2-1.4,3.2-3.2V31.5c0-5.2-4.3-9.5-9.5-9.5
	H26.3c-5.2,0-9.4,4.3-9.4,9.5v63c0,5.2,4.3,9.5,9.5,9.5h44.1c1.7,0,3.2-1.4,3.2-3.2S72.1,97.7,70.4,97.7L70.4,97.7z"/>
<path class="st0" d="M108.3,78.8h-5l0.9-0.9c0.6-0.6,0.9-1.4,0.9-2.2c0-1.7-1.4-3.2-3.2-3.2c-0.8,0-1.6,0.3-2.2,0.9l-4.1,4.1
	l-4.1-4.1c-0.6-0.6-1.4-0.9-2.2-0.9c-1.7,0-3.2,1.4-3.2,3.2c0,0.8,0.3,1.6,0.9,2.2l0.9,0.9h-4.9c-1.7,0-3.1,1.4-3.1,3.1v18.9
	c0,1.7,1.4,3.1,3.1,3.1h25.2c1.7,0,3.1-1.4,3.1-3.1V82c0,0,0,0,0,0C111.5,80.2,110,78.8,108.3,78.8z M86.3,85.1h6.3v12.6h-6.3V85.1z
	 M105.2,97.7h-6.4V85.1h6.4V97.7z"/>
<path class="st0" d="M48.4,53.5c0-1.7-1.4-3.1-3.1-3.1H32.6c-1.7,0-3.1,1.4-3.1,3.1v12.6c0,1.7,1.4,3.1,3.1,3.1h12.6
	c1.7,0,3.1-1.4,3.1-3.1V53.5z M42.1,63h-6.3v-6.3h6.3V63z"/>
<path class="st0" d="M45.2,72.5H32.6c-1.7,0-3.1,1.4-3.1,3.1v12.6c0,1.7,1.4,3.1,3.1,3.1h12.6c1.7,0,3.1-1.4,3.1-3.1V75.6
	C48.4,73.9,47,72.5,45.2,72.5z M42.1,85.1h-6.3v-6.3h6.3L42.1,85.1z"/>
<path class="st0" d="M70.5,50.4H57.8c-1.7,0-3.1,1.4-3.1,3.1v12.6c0,1.7,1.4,3.1,3.1,3.1h12.6c1.7,0,3.1-1.4,3.1-3.1V53.5
	C73.6,51.8,72.2,50.4,70.5,50.4z M67.3,63H61v-6.3h6.3L67.3,63z"/>
<path class="st0" d="M83.1,66.2c1.7,0,3.1-1.4,3.1-3.1v-6.3h6.3V63c0,1.7,1.4,3.2,3.2,3.2s3.2-1.4,3.2-3.2v-9.5
	c0-1.7-1.4-3.1-3.1-3.1H83.1c-1.7,0-3.1,1.4-3.1,3.1V63C79.9,64.8,81.4,66.2,83.1,66.2z"/>
<path class="st0" d="M70.5,72.5H57.8c-1.7,0-3.1,1.4-3.1,3.1v12.6c0,1.7,1.4,3.1,3.1,3.1h12.6c1.7,0,3.1-1.4,3.1-3.1V75.6
	C73.6,73.9,72.2,72.5,70.5,72.5z M67.3,85.1H61v-6.3h6.3V85.1z"/>
</svg>
