<svg width="102" height="102" viewBox="0 0 102 102" fill="none" xmlns="http://www.w3.org/2000/svg">
<path d="M50.994 27.1891C49.3811 27.1732 48.0615 25.8376 48.0615 24.2248C48.0615 22.5991 49.4003 21.2604 51.0259 21.2604C52.6515 21.2604 53.9903 22.5991 53.9903 24.2248C53.9903 25.8504 52.6515 27.1891 51.0259 27.1891C51.0163 27.1891 51.0036 27.1891 50.994 27.1891Z" fill="#C4C4C4"/>
<path d="M56.8969 83.736H15.2681C13.6425 83.736 12.3037 82.3972 12.3037 80.7716V21.261C12.3037 19.6354 13.6425 18.2966 15.2681 18.2966H86.6681C88.2938 18.2966 89.6325 19.6354 89.6325 21.261V30.186H21.2287C19.5936 30.186 18.2484 31.5311 18.2484 33.1663C18.2484 34.8015 19.5936 36.1466 21.2287 36.1466H89.6644V51.0004C89.6644 52.6356 91.0095 53.9807 92.6447 53.9807C94.2799 53.9807 95.625 52.6356 95.625 51.0004V21.261C95.625 16.365 91.596 12.336 86.7 12.336H15.2681C10.3849 12.3519 6.375 16.3777 6.375 21.261V80.7397C6.375 85.6357 10.404 89.6647 15.3 89.6647H56.8969C58.5321 89.6647 59.8772 88.3196 59.8772 86.6844C59.8772 85.0492 58.5321 83.7041 56.8969 83.7041V83.736Z" fill="#C4C4C4"/>
<path d="M92.6596 65.8533H87.9421L88.8028 64.9927C89.3606 64.4349 89.6729 63.6763 89.6729 62.889C89.6729 61.257 88.331 59.915 86.699 59.915C85.9117 59.915 85.1531 60.2274 84.5953 60.7852L80.7384 64.6421L76.9134 60.8171C76.3524 60.2529 75.5906 59.9342 74.7937 59.9342C73.1553 59.9342 71.807 61.2825 71.807 62.9208C71.807 63.7082 72.1194 64.4668 72.674 65.0246L73.5346 65.8852H68.8809C67.2553 65.8852 65.9165 67.224 65.9165 68.8496V86.6996C65.9165 88.3252 67.2553 89.664 68.8809 89.664H92.6915C94.3044 89.648 95.624 88.3125 95.624 86.6996V68.8496C95.624 68.84 95.624 68.8273 95.624 68.8177C95.624 67.1921 94.2853 65.8533 92.6596 65.8533ZM71.8453 71.814H77.7421V83.7034H71.8453V71.814ZM89.6953 83.7034H83.7028V71.814H89.6953V83.7034Z" fill="#C4C4C4"/>
<path d="M36.1159 42.0424C36.1159 40.4168 34.7771 39.078 33.1515 39.078H21.2302C19.6046 39.078 18.2659 40.4168 18.2659 42.0424V53.9318C18.2659 55.5574 19.6046 56.8961 21.2302 56.8961H33.1515C34.7771 56.8961 36.1159 55.5574 36.1159 53.9318V42.0424ZM30.1552 50.9993H24.2265V45.0386H30.1552V50.9993Z" fill="#C4C4C4"/>
<path d="M33.1515 59.9244H21.2302C19.6046 59.9244 18.2659 61.2631 18.2659 62.8888V74.7781C18.2659 76.4037 19.6046 77.7425 21.2302 77.7425H33.1515C34.7771 77.7425 36.1159 76.4037 36.1159 74.7781V62.8888C36.1159 61.2631 34.7771 59.9244 33.1515 59.9244ZM30.1871 71.8138H24.2265V65.8531H30.1552L30.1871 71.8138Z" fill="#C4C4C4"/>
<path d="M56.9581 39.078H45.0369C43.4113 39.078 42.0725 40.4168 42.0725 42.0424V53.9318C42.0725 55.5574 43.4113 56.8961 45.0369 56.8961H56.9263C58.5519 56.8961 59.8906 55.5574 59.8906 53.9318V42.0424C59.8906 40.4295 58.571 39.0939 56.9581 39.078ZM53.9619 50.9993H48.0331V45.0386H53.9938L53.9619 50.9993Z" fill="#C4C4C4"/>
<path d="M68.856 53.9629C70.4816 53.9629 71.8204 52.6242 71.8204 50.9985V45.0379H77.781V50.9985C77.781 52.6337 79.1261 53.9788 80.7613 53.9788C82.3965 53.9788 83.7416 52.6337 83.7416 50.9985V42.0735C83.7416 40.4479 82.4029 39.1092 80.7772 39.1092H68.856C67.2304 39.1092 65.8916 40.4479 65.8916 42.0735V50.9985C65.8916 52.6242 67.2304 53.9629 68.856 53.9629Z" fill="#C4C4C4"/>
<path d="M56.9581 59.9244H45.0369C43.4113 59.9244 42.0725 61.2631 42.0725 62.8888V74.7781C42.0725 76.4037 43.4113 77.7425 45.0369 77.7425H56.9263C58.5519 77.7425 59.8906 76.4037 59.8906 74.7781V62.8888C59.8906 61.2759 58.571 59.9403 56.9581 59.9244ZM53.9938 71.8138H48.0331V65.8531H53.9938V71.8138Z" fill="#C4C4C4"/>
</svg>
