<svg width="29" height="21" viewBox="0 0 29 21" fill="none" xmlns="http://www.w3.org/2000/svg">
<path d="M14.8811 11.6392C14.2972 11.6392 13.8232 11.2269 13.8232 10.7168V1.49316C13.8232 0.983097 14.2972 0.570801 14.8811 0.570801C15.465 0.570801 15.939 0.983097 15.939 1.49316V10.7168C15.939 11.2269 15.465 11.6392 14.8811 11.6392Z" fill="#6727A3"/>
<path d="M14.8789 12.021L9.89957 7.67945C9.48595 7.3188 9.48595 6.73586 9.89957 6.37522C10.3132 6.01458 10.9818 6.01458 11.3954 6.37522L14.8789 9.41257L18.3625 6.37522C18.7761 6.01458 19.4447 6.01458 19.8583 6.37522C20.2719 6.73586 20.2719 7.3188 19.8583 7.67945L14.8789 12.021Z" fill="#6727A3"/>
<path fill-rule="evenodd" clip-rule="evenodd" d="M2.22115 12.0013C2.22115 11.5012 1.75527 11.095 1.18169 11.095C0.607479 11.095 0.141602 11.5012 0.141602 12.0013V19.5647C0.141602 20.0648 0.607479 20.4711 1.18169 20.4711C1.75527 20.4711 2.22115 20.0648 2.22115 19.5647V12.0013Z" fill="#6727A3"/>
<path fill-rule="evenodd" clip-rule="evenodd" d="M27.6464 18.6583C28.2211 18.6583 28.6865 19.0645 28.6865 19.5646C28.6865 20.0652 28.2211 20.4714 27.6464 20.4714H1.28157C0.708496 20.4714 0.24308 20.0652 0.24308 19.5646C0.24308 19.0645 0.708496 18.6583 1.28157 18.6583H27.6464Z" fill="#6727A3"/>
<path fill-rule="evenodd" clip-rule="evenodd" d="M28.7114 11.9366C28.7114 11.4365 28.2455 11.0303 27.6719 11.0303C27.0977 11.0303 26.6318 11.4365 26.6318 11.9366V19.5C26.6318 20.0001 27.0977 20.4064 27.6719 20.4064C28.2455 20.4064 28.7114 20.0001 28.7114 19.5V11.9366Z" fill="#6727A3"/>
</svg>
