<?xml version="1.0" encoding="utf-8"?>
<!-- Generator: Adobe Illustrator 26.0.2, SVG Export Plug-In . SVG Version: 6.00 Build 0)  -->
<svg version="1.1" id="Capa_1" xmlns="http://www.w3.org/2000/svg" xmlns:xlink="http://www.w3.org/1999/xlink" x="0px" y="0px"
	 viewBox="0 0 127 127" style="enable-background:new 0 0 127 127;" xml:space="preserve">
<style type="text/css">
	.st0{fill:#C4C4C4;}
	.st1{fill-rule:evenodd;clip-rule:evenodd;fill:#C4C4C4;}
</style>
<path class="st0" d="M104.4,49.5H22.6c-0.7,0-1.3-0.4-1.5-1c-0.3-0.6-0.2-1.3,0.2-1.8L40.9,23c0.3-0.4,0.8-0.6,1.3-0.6h42.5
	c0.5,0,1,0.2,1.3,0.6l19.6,23.7c0.4,0.5,0.5,1.2,0.2,1.8C105.6,49.1,105,49.5,104.4,49.5z M26.3,46.1h74.4L84,25.8H43L26.3,46.1z"/>
<path class="st1" d="M104.4,50.4c1,0,1.9-0.6,2.3-1.5c0.4-0.9,0.3-2-0.4-2.8L86.7,22.4c-0.5-0.6-1.2-0.9-2-0.9H42.2
	c-0.8,0-1.5,0.3-2,0.9c0,0-19.6,23.7-19.6,23.7c-0.6,0.8-0.8,1.9-0.4,2.8c0.4,0.9,1.3,1.5,2.3,1.5H104.4z M104.4,48.7H22.6
	c-0.3,0-0.6-0.2-0.8-0.5c-0.1-0.3-0.1-0.7,0.1-0.9l19.6-23.7c0.2-0.2,0.4-0.3,0.7-0.3h42.5c0.3,0,0.5,0.1,0.7,0.3L105,47.2
	c0.2,0.3,0.3,0.6,0.1,0.9C105,48.5,104.7,48.7,104.4,48.7z M25.6,45.5c-0.2,0.3-0.3,0.6-0.1,0.9c0.1,0.3,0.4,0.5,0.8,0.5h74.4
	c0.3,0,0.6-0.2,0.8-0.5c0.1-0.3,0.1-0.7-0.1-0.9L84.6,25.3C84.5,25.1,84.2,25,84,25H43c-0.3,0-0.5,0.1-0.7,0.3L25.6,45.5z
	 M28.1,45.2l15.3-18.5h40.2l15.3,18.5H28.1z"/>
<path class="st0" d="M63.4,103.6L21.1,49.1l2.6-2.4l39.7,51.2l39.7-51.2l2.6,2.4L63.4,103.6z"/>
<path class="st1" d="M62.7,104.1c0.2,0.2,0.4,0.3,0.7,0.3c0.3,0,0.5-0.1,0.7-0.3l42.4-54.5c0.2-0.3,0.2-0.7-0.1-1l-2.6-2.4
	c-0.2-0.2-0.4-0.2-0.7-0.2c-0.3,0-0.5,0.1-0.6,0.3l-39,50.3l-39-50.3c-0.1-0.2-0.4-0.3-0.6-0.3c-0.3,0-0.5,0.1-0.7,0.2l-2.6,2.4
	c-0.3,0.3-0.3,0.7-0.1,1L62.7,104.1z M63.4,102.3L22.2,49.2l1.4-1.3l39.2,50.4c0.2,0.2,0.4,0.3,0.7,0.3c0.3,0,0.5-0.1,0.7-0.3
	l39.2-50.4l1.4,1.3L63.4,102.3z"/>
<path class="st0" d="M45.5,49.7l-0.7-2c-0.2-0.5-0.1-1.1,0.2-1.6l17.1-23c0.6-0.9,2.1-0.9,2.7,0l17.1,23c0.3,0.4,0.4,1,0.2,1.6
	l-0.7,2h-3.6l0.8-2.3L63.5,26.9L48.3,47.4l0.8,2.3H45.5z"/>
<path class="st1" d="M45.1,49.8c0.1,0.2,0.2,0.3,0.4,0.3h3.6c0.1,0,0.3-0.1,0.3-0.2c0.1-0.1,0.1-0.3,0.1-0.4l-0.7-2.1l14.7-19.8
	l14.7,19.8l-0.7,2.1c0,0.1,0,0.3,0.1,0.4c0.1,0.1,0.2,0.2,0.3,0.2h3.6c0.2,0,0.3-0.1,0.4-0.3l0.7-2c0.2-0.7,0.1-1.4-0.3-2l-17.1-23
	c-0.4-0.5-1.1-0.8-1.7-0.8c-0.7,0-1.3,0.3-1.7,0.8l-17.1,23c-0.4,0.6-0.5,1.3-0.3,2C44.4,47.8,45.1,49.8,45.1,49.8z M45.8,49.2
	l-0.6-1.7c-0.1-0.4-0.1-0.8,0.2-1.2l17.1-23c0.2-0.3,0.6-0.5,1-0.5c0.4,0,0.8,0.2,1,0.5l17.1,23c0.2,0.3,0.3,0.8,0.2,1.1l-0.6,1.7
	h-2.7l0.6-1.7c0-0.1,0-0.3-0.1-0.4L63.8,26.6c-0.1-0.1-0.2-0.2-0.3-0.2s-0.3,0.1-0.3,0.2L48,47.1c-0.1,0.1-0.1,0.3-0.1,0.4l0.6,1.7
	H45.8z"/>
<path class="st0" d="M48.1,47.5l-4.1-23.7l-3.4,0.6l4.1,23.7L48.1,47.5z"/>
<path class="st1" d="M48.1,47.9c0.2,0,0.4-0.3,0.3-0.5l-4.1-23.7c0-0.2-0.3-0.4-0.5-0.3L40.5,24c-0.2,0-0.4,0.3-0.3,0.5l4.1,23.7
	c0,0.2,0.3,0.4,0.5,0.3L48.1,47.9z M47.6,47.1L45,47.6l-4-22.8l2.5-0.5L47.6,47.1z"/>
<path class="st0" d="M86.5,24.4l-3.4-0.6l-4.1,23.7l3.4,0.6L86.5,24.4z"/>
<path class="st1" d="M86.9,24.5c0-0.2-0.1-0.5-0.3-0.5l-3.4-0.6c-0.2,0-0.5,0.1-0.5,0.3l-4.1,23.7c0,0.2,0.1,0.5,0.3,0.5l3.4,0.6
	c0.2,0,0.5-0.1,0.5-0.3L86.9,24.5z M86,24.8l-4,22.8l-2.5-0.5l4-22.8L86,24.8z"/>
<path class="st1" d="M81.9,47.8c0-1.1-1-1.9-2.1-1.9h-33c-1.2,0-2.1,0.9-2.1,1.9v30.5c0,1.1,1,1.9,2.1,1.9h33c1.2,0,2.1-0.9,2.1-1.9
	V47.8z M77.7,49.7v26.6H48.9V49.7H77.7z"/>
<path class="st1" d="M56.4,78.4c0.1,0.9,0.8,1.6,1.7,1.6h11c0.9,0,1.6-0.7,1.7-1.6c0-0.3,0-0.5,0-0.8v-9c0-4.3-3.3-7.7-7.2-7.7
	c-4,0-7.2,3.4-7.2,7.7v9C56.4,77.9,56.4,78.1,56.4,78.4z M67.4,76.5h-7.6v-7.9c0-2.3,1.7-4.3,3.8-4.3c2.1,0,3.8,1.9,3.8,4.3V76.5z"
	/>
</svg>
