<svg width="109" height="111" viewBox="0 0 109 111" fill="none" xmlns="http://www.w3.org/2000/svg">
<path d="M95.3746 43.5257H13.6246C12.9621 43.5257 12.36 43.1346 12.0807 42.5224C11.8014 41.9101 11.8959 41.1886 12.3225 40.6735L31.9289 16.9924C32.2525 16.6013 32.7285 16.3758 33.231 16.3758H75.7725C76.2749 16.3758 76.7509 16.6013 77.0745 16.9924L96.6766 40.6735C97.1033 41.1895 97.1978 41.911 96.9185 42.5224C96.6392 43.1337 96.0371 43.5257 95.3746 43.5257ZM17.2889 40.0569H91.712L74.9814 19.8445H34.0229L17.2889 40.0569Z" fill="#C4C4C4"/>
<path fill-rule="evenodd" clip-rule="evenodd" d="M95.3746 44.3929C96.3684 44.3929 97.2719 43.8049 97.6909 42.8883C98.1099 41.9708 97.9677 40.8886 97.3281 40.115L77.726 16.433C77.2406 15.8468 76.5262 15.5086 75.7725 15.5086H33.231C32.4774 15.5086 31.7629 15.8468 31.2775 16.4339C31.2775 16.433 11.6712 40.1142 11.6712 40.1142C11.0316 40.8868 10.8894 41.9691 11.3084 42.8874C11.7274 43.8058 12.6309 44.3929 13.6247 44.3929H95.3746ZM95.3746 42.6585H13.6247C13.2934 42.6585 12.9928 42.4634 12.8531 42.1573C12.7135 41.8512 12.7603 41.4904 12.9732 41.2329L32.5804 17.5508C32.7422 17.3557 32.9798 17.243 33.231 17.243H75.7725C76.0237 17.243 76.2613 17.3557 76.4231 17.5508L96.0252 41.232C96.239 41.4904 96.2858 41.8512 96.1462 42.1564C96.0065 42.4625 95.7059 42.6585 95.3746 42.6585ZM16.6375 39.4976C16.4246 39.756 16.3769 40.1168 16.5166 40.4229C16.6562 40.7281 16.9577 40.9241 17.2889 40.9241H91.7121C92.0433 40.9241 92.3448 40.7281 92.4844 40.4229C92.6241 40.1168 92.5764 39.756 92.3635 39.4976L75.6329 19.2852C75.4711 19.0901 75.2326 18.9774 74.9814 18.9774H34.023C33.7718 18.9774 33.5333 19.0901 33.3715 19.2852L16.6375 39.4976ZM19.1206 39.1898L34.419 20.7117H74.5855L89.8804 39.1898H19.1206Z" fill="#C4C4C4"/>
<path d="M54.4374 97.6294L12.0815 43.0961L14.6983 40.7078L54.4374 91.8709L94.1766 40.7078L96.7933 43.0961L54.4374 97.6294Z" fill="#C4C4C4"/>
<path fill-rule="evenodd" clip-rule="evenodd" d="M53.7422 98.0764C53.9013 98.2813 54.1612 98.4037 54.4374 98.4037C54.7137 98.4037 54.9736 98.2813 55.1327 98.0764L97.4886 43.5432C97.728 43.2354 97.6887 42.8163 97.3962 42.5502L94.7794 40.1619C94.6024 39.9997 94.3553 39.9171 94.1047 39.9366C93.8542 39.9561 93.6258 40.0748 93.4813 40.2611L54.4374 90.5286L15.3936 40.2611C15.2491 40.0748 15.0207 39.9561 14.7702 39.9366C14.5196 39.9171 14.2725 39.9997 14.0955 40.1619L11.4787 42.5502C11.1862 42.8163 11.1469 43.2354 11.3863 43.5432L53.7422 98.0764ZM54.4374 96.287L13.1898 43.1816L14.5872 41.9068L53.7422 92.318C53.9013 92.5229 54.1612 92.6452 54.4374 92.6452C54.7137 92.6452 54.9736 92.5229 55.1327 92.318L94.2877 41.9068L95.6851 43.1816L54.4374 96.287Z" fill="#C4C4C4"/>
<path d="M36.5026 43.6565L35.783 41.6372C35.5949 41.1105 35.6834 40.5273 36.0172 40.0773L53.1302 17.0628C53.7706 16.1998 55.231 16.1998 55.8731 17.0628L72.9895 40.0773C73.3242 40.5265 73.4119 41.1105 73.2237 41.6372L72.5041 43.6565H68.8918L69.711 41.3575L54.5021 20.9059L39.2949 41.3575L40.1141 43.6565H36.5026Z" fill="#C4C4C4"/>
<path fill-rule="evenodd" clip-rule="evenodd" d="M36.1027 43.8045C36.1631 43.9764 36.3232 44.0902 36.5029 44.0902H40.1144C40.2532 44.0902 40.3826 44.021 40.4627 43.9056C40.5427 43.7901 40.5614 43.6418 40.5146 43.5086L39.7746 41.432L54.5024 21.6244L69.2318 41.432L68.4918 43.5086C68.445 43.6418 68.4637 43.7901 68.5438 43.9056C68.623 44.021 68.7533 44.0902 68.8921 44.0902H72.5044C72.6841 44.0902 72.8433 43.9764 72.9046 43.8045L73.6242 41.7852C73.8618 41.1211 73.7519 40.3828 73.3287 39.8156L56.2132 16.8012C55.8112 16.2618 55.1581 15.9828 54.5015 15.9828C53.8441 15.9828 53.191 16.2618 52.7907 16.802L35.6777 39.8165C35.2562 40.3845 35.1455 41.1211 35.3831 41.786C35.3831 41.7852 36.1027 43.8045 36.1027 43.8045ZM36.8009 43.2229L36.1836 41.4894C36.0448 41.1008 36.1112 40.671 36.3573 40.339L53.4703 17.3245C53.7104 17.0017 54.1081 16.8492 54.5015 16.8492C54.8949 16.8492 55.2935 17.0017 55.5336 17.3254L72.6509 40.3398C72.897 40.671 72.9625 41.1008 72.8237 41.4894L72.2064 43.2229H69.5001L70.1115 41.5054C70.1609 41.3672 70.1379 41.2129 70.051 41.0958L54.8421 20.6442C54.7612 20.5363 54.6361 20.4731 54.5024 20.4731C54.3687 20.4731 54.2435 20.5363 54.1626 20.6442L38.9554 41.0958C38.8685 41.2129 38.8455 41.3672 38.8949 41.5054L39.5064 43.2229H36.8009Z" fill="#C4C4C4"/>
<path d="M39.0692 41.4747L34.9457 17.8044L31.5609 18.4248L35.6844 42.0951L39.0692 41.4747Z" fill="#C4C4C4"/>
<path fill-rule="evenodd" clip-rule="evenodd" d="M39.1422 41.9004C39.3755 41.8576 39.5317 41.6317 39.4907 41.3963L35.3705 17.728C35.3295 17.4925 35.1068 17.3361 34.8734 17.3789L31.4913 17.9993C31.258 18.0421 31.1019 18.2679 31.1428 18.5034L35.2631 42.1717C35.304 42.4072 35.5267 42.5635 35.7601 42.5207L39.1422 41.9004ZM38.5709 41.1247L36.0343 41.59L32.0626 18.775L34.5992 18.3097L38.5709 41.1247Z" fill="#C4C4C4"/>
<path d="M77.4524 18.4243L74.0676 17.8036L69.9416 41.4747L73.3264 42.0955L77.4524 18.4243Z" fill="#C4C4C4"/>
<path fill-rule="evenodd" clip-rule="evenodd" d="M77.8704 18.503C77.9114 18.2675 77.7553 18.0417 77.522 17.9988L74.1399 17.3781C73.9065 17.3353 73.6838 17.4917 73.6428 17.7272L69.5201 41.3963C69.4791 41.6317 69.6352 41.8576 69.8685 41.9005L73.2506 42.5211C73.484 42.564 73.7067 42.4076 73.7477 42.1721L77.8704 18.503ZM76.9506 18.7745L72.9765 41.5903L70.4399 41.1248L74.414 18.3089L76.9506 18.7745Z" fill="#C4C4C4"/>
<path fill-rule="evenodd" clip-rule="evenodd" d="M72.9236 41.7536C72.9236 40.6824 71.9703 39.8144 70.7949 39.8144H37.7614C36.5859 39.8144 35.6326 40.6824 35.6326 41.7536V72.2571C35.6326 73.3284 36.5859 74.1964 37.7614 74.1964H70.7949C71.9703 74.1964 72.9236 73.3284 72.9236 72.2571V41.7536ZM68.6661 43.6929V70.3179H39.8909V43.6929H68.6661Z" fill="#C4C4C4"/>
<path fill-rule="evenodd" clip-rule="evenodd" d="M47.3932 72.3914C47.4783 73.2791 48.2115 73.9564 49.0878 73.9564H60.0789C60.9552 73.9564 61.6884 73.2791 61.7744 72.3914C61.7991 72.1293 61.8127 71.8626 61.8127 71.5931V62.5505C61.8127 58.2595 58.5435 54.8285 54.5838 54.8285C50.624 54.8285 47.3549 58.2595 47.3549 62.5505V71.5931C47.3549 71.8626 47.3676 72.1293 47.3932 72.3914ZM58.4064 70.4876H50.7611V62.5505C50.7611 60.2315 52.4429 58.2973 54.5838 58.2973C56.7237 58.2973 58.4064 60.2315 58.4064 62.5505V70.4876Z" fill="#C4C4C4"/>
</svg>
