<svg width="59" height="58" viewBox="0 0 59 58" fill="none" xmlns="http://www.w3.org/2000/svg">
<path fill-rule="evenodd" clip-rule="evenodd" d="M11.2946 7.25C11.2946 5.24797 12.9162 3.625 14.9166 3.625H43.892C45.8923 3.625 47.5139 5.24797 47.5139 7.25V54.375H52.9468C53.947 54.375 54.7578 55.1865 54.7578 56.1875C54.7578 57.1885 53.947 58 52.9468 58H5.86174C4.86158 58 4.05078 57.1885 4.05078 56.1875C4.05078 55.1865 4.86158 54.375 5.86174 54.375H11.2946V7.25ZM14.9166 54.375H43.892V7.25H14.9166V54.375Z" fill="#212121"/>
<path d="M33.0262 32.625C33.0262 34.627 34.6478 36.25 36.6481 36.25C38.6485 36.25 40.27 34.627 40.27 32.625C40.27 30.623 38.6485 29 36.6481 29C34.6478 29 33.0262 30.623 33.0262 32.625Z" fill="#212121"/>
</svg>
