<svg width="18" height="17" viewBox="0 0 18 17" fill="none" xmlns="http://www.w3.org/2000/svg">
<g clip-path="url(#clip0_1173_17185)">
<path d="M8.20741 16.999C6.38057 16.999 4.55426 17.0032 2.72742 16.9974C1.50405 16.9936 0.525877 16.2293 0.227596 15.0649C0.172929 14.8508 0.155945 14.634 0.155945 14.414C0.156475 10.7542 0.153822 7.09436 0.157537 3.434C0.159129 1.95164 1.26999 0.847461 2.74759 0.846929C5.46078 0.845863 8.1745 0.846396 10.8877 0.846929C11.2603 0.846929 11.5384 1.01205 11.6907 1.35667C11.8356 1.68532 11.7794 1.99479 11.5469 2.26484C11.3558 2.48695 11.0989 2.55194 10.815 2.5514C8.19414 2.5498 5.5733 2.55034 2.95246 2.55034C2.86648 2.55034 2.7805 2.54874 2.69452 2.55087C2.21684 2.56472 1.87557 2.89549 1.84479 3.37488C1.84107 3.43453 1.8432 3.49419 1.8432 3.55438C1.8432 7.13484 1.8432 10.7148 1.8432 14.2952C1.8432 14.9807 2.16801 15.3051 2.85427 15.3051C6.43471 15.3051 10.0151 15.3046 13.5956 15.3062C13.9029 15.3062 14.1693 15.2268 14.3694 14.9797C14.5196 14.7943 14.553 14.5775 14.5525 14.3448C14.5499 11.681 14.5515 9.01775 14.5504 6.35398C14.5504 6.21389 14.5552 6.07487 14.6003 5.94118C14.7261 5.56406 15.1194 5.31425 15.4978 5.36911C15.9213 5.43037 16.2265 5.75422 16.2467 6.16915C16.253 6.30178 16.2488 6.43494 16.2488 6.56757C16.2488 9.17808 16.2493 11.7886 16.2483 14.3991C16.2477 15.7014 15.398 16.7246 14.1215 16.9665C13.9443 17 13.7659 16.9979 13.5876 16.9979C11.7942 16.999 10.0008 16.999 8.20741 16.999Z" fill="#716C6C"/>
<path d="M16.2488 6.69388e-09C16.5885 0.00798973 16.8481 0.158197 17.0009 0.462871C17.1527 0.765948 17.1267 1.06689 16.9303 1.34654C16.8884 1.40566 16.8374 1.45892 16.7865 1.51059C14.0022 4.30593 11.2179 7.10074 8.43249 9.89501C8.05141 10.2775 7.5472 10.303 7.19478 9.96425C6.87633 9.65798 6.84077 9.17593 7.11358 8.82652C7.15444 8.77432 7.20062 8.72691 7.24732 8.68004C10.0221 5.89429 12.7979 3.1096 15.5721 0.322785C15.7611 0.132097 15.9686 -0.00479383 16.2488 6.69388e-09Z" fill="#716C6C"/>
</g>
<defs>
<clipPath id="clip0_1173_17185">
<rect width="16.9426" height="17" fill="white" transform="translate(0.155396)"/>
</clipPath>
</defs>
</svg>
