<?xml version="1.0" encoding="utf-8"?>
<!-- Generator: Adobe Illustrator 26.0.2, SVG Export Plug-In . SVG Version: 6.00 Build 0)  -->
<svg version="1.1" id="Capa_1" xmlns="http://www.w3.org/2000/svg" xmlns:xlink="http://www.w3.org/1999/xlink" x="0px" y="0px"
	 viewBox="0 0 127 127" style="enable-background:new 0 0 127 127;" xml:space="preserve">
<style type="text/css">
	.st0{fill:#C4C4C4;}
	.st1{fill-rule:evenodd;clip-rule:evenodd;fill:#C4C4C4;}
</style>
<path class="st0" d="M102,58.3c-2.4,0-4.6,1.6-5.3,4.1h-7c-0.3-5.9-2.6-11.5-6.6-15.9l4.9-4.9c0.9,0.5,1.8,0.8,2.7,0.8
	c3,0,5.5-2.4,5.5-5.5c0-3-2.4-5.5-5.5-5.5s-5.5,2.4-5.5,5.5c0,1,0.2,2,0.8,2.7L81,44.5c-4.4-4-10-6.4-15.9-6.6v-7
	c2.4-0.7,4.1-2.9,4.1-5.3c0-3-2.4-5.5-5.5-5.5c-3,0-5.5,2.4-5.5,5.5c0,2.5,1.6,4.6,4.1,5.3v7c-5.9,0.3-11.5,2.6-15.9,6.6l-4.9-4.9
	c0.4-0.9,0.8-1.8,0.8-2.7c0-3-2.4-5.5-5.5-5.5c-3,0-5.5,2.4-5.5,5.5c0,3,2.4,5.5,5.5,5.5c1,0,2-0.2,2.7-0.8l4.9,4.9
	c-4,4.4-6.3,10-6.6,15.9h-7c-0.7-2.4-2.7-4.1-5.3-4.1c-3,0-5.5,2.4-5.5,5.5c0,3,2.4,5.5,5.5,5.5c2.5,0,4.6-1.6,5.3-4.1h7
	c0.3,5.9,2.6,11.5,6.6,15.9l-4.9,4.9c-0.9-0.5-1.8-0.8-2.7-0.8c-3,0-5.5,2.4-5.5,5.5c0,3,2.4,5.5,5.5,5.5c3,0,5.5-2.4,5.5-5.5
	c0-1-0.2-2-0.8-2.7l4.9-4.9c4.4,4,10,6.4,15.9,6.7v7c-2.4,0.7-4.1,2.9-4.1,5.3c0,3,2.4,5.5,5.5,5.5c3,0,5.5-2.4,5.5-5.5
	c0-2.5-1.6-4.6-4.1-5.3v-7c5.9-0.3,11.5-2.6,15.9-6.6l4.9,4.9c-0.4,0.9-0.8,1.8-0.8,2.7c0,3,2.4,5.5,5.5,5.5s5.5-2.4,5.5-5.5
	c0-3-2.4-5.5-5.5-5.5c-1,0-2,0.2-2.7,0.8L83,81.1c4-4.4,6.4-10,6.6-15.9h7c0.7,2.4,2.7,4.1,5.3,4.1c3,0,5.5-2.4,5.5-5.5
	C107.5,60.8,105.1,58.3,102,58.3L102,58.3z M88.9,34.8c0.5-0.5,1.2-0.8,2-0.8c1.5,0,2.7,1.2,2.7,2.7c0,1.5-1.2,2.7-2.7,2.7
	s-2.7-1.2-2.7-2.7C88.2,36,88.4,35.4,88.9,34.8z M61.3,25.6c0-1.5,1.2-2.7,2.7-2.7s2.7,1.2,2.7,2.7s-1.2,2.7-2.7,2.7
	S61.3,27.1,61.3,25.6z M35.1,38.8c-0.5-0.5-0.8-1.2-0.8-2c0-1.5,1.2-2.7,2.7-2.7c0.8,0,1.4,0.3,2,0.8c0.5,0.5,0.8,1.2,0.8,2
	c0,1.5-1.2,2.7-2.7,2.7C36.3,39.5,35.6,39.2,35.1,38.8z M25.9,66.5c-1.5,0-2.7-1.2-2.7-2.7c0-1.5,1.2-2.7,2.7-2.7s2.7,1.2,2.7,2.7
	C28.6,65.2,27.3,66.5,25.9,66.5z M39,92.7c-0.5,0.5-1.2,0.8-2,0.8c-1.5,0-2.7-1.2-2.7-2.7c0-0.8,0.3-1.4,0.8-2
	c0.5-0.5,1.2-0.8,2-0.8c1.5,0,2.7,1.2,2.7,2.7C39.7,91.5,39.4,92.2,39,92.7z M66.6,101.9c0,1.5-1.2,2.7-2.7,2.7s-2.7-1.2-2.7-2.7
	s1.2-2.7,2.7-2.7C65.4,99.3,66.6,100.5,66.6,101.9z M92.8,88.8c0.5,0.5,0.8,1.2,0.8,2c0,1.5-1.2,2.7-2.7,2.7c-0.8,0-1.4-0.3-2-0.8
	c-0.4-0.5-0.7-1.3-0.7-2c0-1.5,1.2-2.7,2.7-2.7C91.6,88.1,92.2,88.3,92.8,88.8z M63.9,87c-12.6,0-23.1-10.4-23.1-23.2
	s10.4-23.2,23.1-23.2S87,51.1,87,63.8C87.1,76.5,76.6,87,63.9,87z M102,66.5c-1.5,0-2.7-1.2-2.7-2.7c0-1.5,1.2-2.7,2.7-2.7
	s2.7,1.2,2.7,2.7C104.7,65.2,103.5,66.5,102,66.5z"/>
<path class="st1" d="M102,56.9c-2.7,0-5.2,1.6-6.3,4.1h-4.6c-0.5-5.3-2.6-10.3-6-14.5l3.3-3.3c0.8,0.3,1.6,0.4,2.4,0.4
	c3.7,0,6.8-3.1,6.8-6.9c0-3.7-3.1-6.9-6.8-6.9S84,32.8,84,36.7c0,0.9,0.1,1.6,0.4,2.5L81,42.5c-4.1-3.4-9.1-5.5-14.4-6v-4.7
	c2.4-1.1,4.1-3.5,4.1-6.3c0-3.7-3.1-6.9-6.8-6.9c-3.7,0-6.8,3.1-6.8,6.9c0,2.7,1.6,5.2,4.1,6.3v4.8c-5.3,0.5-10.3,2.6-14.4,6
	l-3.3-3.3c0.3-0.8,0.4-1.6,0.4-2.5c0-3.7-3.1-6.9-6.8-6.9s-6.8,3.1-6.8,6.9c0,3.7,3.1,6.9,6.8,6.9c0.9,0,1.6-0.1,2.4-0.4l3.3,3.3
	c-3.4,4.2-5.5,9.1-6,14.5h-4.6c-1.1-2.4-3.5-4.1-6.3-4.1c-3.7,0-6.8,3.1-6.8,6.9c0,3.7,3.1,6.9,6.8,6.9c2.7,0,5.2-1.6,6.3-4.1h4.7
	c0.5,5.3,2.6,10.3,6,14.5l-3.3,3.3c-0.8-0.3-1.6-0.4-2.4-0.4c-3.7,0-6.8,3.1-6.8,6.9c0,3.7,3.1,6.9,6.8,6.9S44,94.9,44,91
	c0-0.9-0.1-1.6-0.4-2.5l3.3-3.3c4.1,3.4,9.1,5.5,14.4,6V96c-2.4,1.1-4.1,3.5-4.1,6.3c0,3.7,3.1,6.9,6.8,6.9s6.8-3.1,6.8-6.9
	c0-2.7-1.6-5.2-4.1-6.3v-4.7c5.3-0.5,10.3-2.6,14.4-6l3.3,3.3C84.1,89.3,84,90.2,84,91c0,3.7,3.1,6.9,6.8,6.9c3.7,0,6.8-3.1,6.8-6.9
	c0-3.7-3.1-6.9-6.8-6.9c-0.9,0-1.6,0.1-2.4,0.4l-3.3-3.4c3.4-4.2,5.5-9.1,6-14.5h4.7c1.1,2.4,3.5,4.1,6.3,4.1c3.7,0,6.8-3.1,6.8-6.9
	C108.9,60,105.8,56.9,102,56.9L102,56.9z M65.2,101.9c0,0.7-0.5,1.3-1.3,1.3s-1.3-0.5-1.3-1.3s0.5-1.3,1.3-1.3
	S65.2,101.2,65.2,101.9z M63.9,97.2c-0.1,0.3-0.2,0.5-0.4,0.7c0.1,0,0.3,0,0.4,0c0.1,0,0.3,0,0.4,0C64.2,97.6,64,97.4,63.9,97.2z
	 M38,91.7c-0.2,0.2-0.5,0.3-0.9,0.3c-0.7,0-1.3-0.5-1.3-1.3c0-0.3,0.1-0.7,0.3-0.9c0.2-0.2,0.5-0.3,0.9-0.3c0.7,0,1.3,0.5,1.3,1.3
	C38.3,91.1,38.2,91.5,38,91.7z M91.8,89.8c0.2,0.2,0.3,0.5,0.3,0.9c0,0.8-0.5,1.3-1.3,1.3c-0.3,0-0.7-0.1-0.9-0.3
	c-0.2-0.2-0.3-0.5-0.3-0.9c0-0.8,0.5-1.3,1.3-1.3C91.2,89.5,91.6,89.6,91.8,89.8z M63.1,88.4c0.4,0.1,0.7,0.4,0.8,0.9
	c0.1-0.4,0.4-0.8,0.8-0.9c-0.2,0-0.5,0-0.8,0S63.3,88.4,63.1,88.4z M40.5,87.3c-0.3,0.1-0.7,0.2-0.9,0.1c0.3,0.2,0.5,0.4,0.8,0.8
	C40.3,88,40.3,87.6,40.5,87.3z M87.4,87.4c0.1,0.2,0.2,0.5,0.1,0.9c0.2-0.2,0.4-0.5,0.7-0.8C88.1,87.5,87.7,87.5,87.4,87.4z
	 M63.9,85.5c-11.9,0-21.6-9.8-21.6-21.7S52,42.1,63.9,42.1s21.6,9.8,21.6,21.7S75.9,85.5,63.9,85.5z M81.8,80.6
	c-0.4,0.4-0.8,0.8-1.2,1.2c0.4-0.2,0.9-0.2,1.3,0C81.7,81.5,81.7,80.9,81.8,80.6z M46.1,80.6c0.1,0.4,0.1,0.9-0.1,1.2
	c0.3-0.2,0.8-0.2,1.2-0.1C46.9,81.4,46.4,80.9,46.1,80.6z M102,65.1c-0.7,0-1.3-0.5-1.3-1.3c0-0.8,0.5-1.3,1.3-1.3
	c0.7,0,1.3,0.5,1.3,1.3C103.3,64.6,102.8,65.1,102,65.1z M25.9,65.1c-0.7,0-1.3-0.5-1.3-1.3c0-0.8,0.5-1.3,1.3-1.3
	c0.7,0,1.3,0.5,1.3,1.3C27.2,64.6,26.6,65.1,25.9,65.1z M88.5,62.9c0,0.2,0,0.5,0,0.8c0,0.2,0,0.5,0,0.8c0.1-0.4,0.5-0.7,0.9-0.8
	C88.9,63.7,88.6,63.4,88.5,62.9z M39.4,63c-0.2,0.3-0.4,0.7-0.9,0.8c0.3,0.1,0.7,0.3,0.9,0.8c0-0.2,0-0.4,0-0.8
	C39.4,63.6,39.4,63.2,39.4,63z M30,63.2c0,0.2,0,0.3,0,0.5s0,0.3,0,0.5c0.2-0.2,0.4-0.4,0.8-0.5C30.4,63.7,30.2,63.5,30,63.2z
	 M97.9,63.2c-0.2,0.2-0.4,0.4-0.8,0.5c0.3,0.1,0.5,0.2,0.8,0.4c0-0.1,0-0.3,0-0.4C97.8,63.6,97.8,63.5,97.9,63.2z M102,56.9
	L102,56.9L102,56.9z M81.9,45.8C81.6,46,81,46,80.7,45.9c0.4,0.4,0.8,0.8,1.2,1.2C81.7,46.7,81.7,46.1,81.9,45.8z M46,45.8
	c0.2,0.3,0.2,0.8,0.1,1.2c0.3-0.4,0.8-0.8,1.1-1.1C46.9,46,46.4,46,46,45.8z M87.6,39.3c0,0.3,0,0.5-0.1,0.9
	c0.2-0.1,0.5-0.2,0.9-0.1C88.1,39.9,87.8,39.6,87.6,39.3z M40.3,39.3c-0.2,0.3-0.4,0.5-0.8,0.8c0.3-0.1,0.7,0,0.9,0.1
	C40.3,40,40.3,39.6,40.3,39.3z M63.9,38.3c-0.1,0.3-0.4,0.7-0.8,0.9c0.2,0,0.4,0,0.8,0c0.2,0,0.5,0,0.8,0
	C64.3,39,64.1,38.6,63.9,38.3z M36.1,37.7c-0.2-0.2-0.3-0.5-0.3-0.9c0-0.8,0.5-1.3,1.3-1.3c0.3,0,0.7,0.1,0.9,0.3
	c0.2,0.2,0.3,0.5,0.3,0.9c0,0.8-0.5,1.3-1.3,1.3C36.7,38.1,36.3,38,36.1,37.7z M89.9,35.9c0.2-0.2,0.5-0.3,0.9-0.3
	c0.7,0,1.3,0.5,1.3,1.3c0,0.7-0.5,1.3-1.3,1.3c-0.7,0-1.3-0.5-1.3-1.3C89.6,36.4,89.7,36.1,89.9,35.9z M64.4,29.8
	c-0.2,0-0.3,0-0.5,0c-0.2,0-0.3,0-0.5,0c0.2,0.2,0.4,0.4,0.5,0.8C64,30.2,64.2,29.9,64.4,29.8z M62.7,25.6c0-0.8,0.5-1.3,1.3-1.3
	c0.8,0,1.3,0.5,1.3,1.3s-0.5,1.3-1.3,1.3S62.7,26.3,62.7,25.6z"/>
<path class="st0" d="M47.4,59.8c-1.1,1.1-1.6,2.5-1.6,4.1c0,3.1,2.5,5.7,5.7,5.7c3.2,0,5.7-2.5,5.7-5.7c0-1.5-0.5-3-1.6-4.1
	s-2.5-1.6-4.1-1.6S48.4,58.7,47.4,59.8z M53.5,65.9c-0.5,0.5-1.2,0.9-2,0.9c-1.5,0-2.9-1.3-2.9-2.9c0-1.5,1.3-2.9,2.9-2.9
	c0.8,0,1.4,0.3,2,0.9c0.5,0.5,0.9,1.2,0.9,2C54.3,64.7,53.9,65.3,53.5,65.9z"/>
<path class="st1" d="M47.1,59.6c-1.1,1.1-1.8,2.6-1.8,4.3c0,3.3,2.7,6,6,6c3.3,0,6-2.7,6-6c0-1.6-0.7-3.2-1.8-4.3s-2.6-1.8-4.3-1.8
	C49.8,57.9,48.3,58.4,47.1,59.6z M47.6,60.1c1-1,2.3-1.5,3.7-1.5s2.7,0.5,3.7,1.5c1,1,1.5,2.3,1.5,3.7c0,3-2.4,5.4-5.4,5.4
	c-3,0-5.4-2.4-5.4-5.4C46.1,62.5,46.6,61,47.6,60.1z M53.7,66.1c0.5-0.5,1-1.4,1-2.3s-0.3-1.6-1-2.3c-0.7-0.4-1.4-0.8-2.3-0.8
	c-1.8,0-3.2,1.4-3.2,3.2c0,1.8,1.4,3.2,3.2,3.2C52.2,67.1,53,66.8,53.7,66.1z M53.1,65.7c-0.4,0.4-1.1,0.8-1.8,0.8
	c-1.3,0-2.5-1.1-2.5-2.5c0-1.4,1.1-2.5,2.5-2.5c0.7,0,1.3,0.2,1.8,0.8c0.4,0.4,0.8,1.1,0.8,1.8S53.7,65.2,53.1,65.7z"/>
<path class="st0" d="M60.2,47c-1.1,1.1-1.6,2.5-1.6,4.1c0,3.1,2.5,5.7,5.7,5.7c3.1,0,5.7-2.5,5.7-5.7c0-1.5-0.5-3-1.6-4.1
	c-1.1-1.1-2.5-1.6-4.1-1.6S61.3,46,60.2,47z M66.2,53c-0.5,0.5-1.2,0.9-2,0.9c-1.5,0-2.9-1.3-2.9-2.9s1.3-2.9,2.9-2.9
	c0.8,0,1.4,0.3,2,0.9s0.9,1.2,0.9,2S66.7,52.6,66.2,53z"/>
<path class="st1" d="M59.9,46.8c-1.1,1.1-1.8,2.6-1.8,4.3c0,3.3,2.7,6,6,6c3.3,0,6-2.7,6-6c0-1.6-0.7-3.2-1.8-4.3S65.9,45,64.2,45
	C62.6,45,61,45.7,59.9,46.8z M60.5,47.3c1-1,2.3-1.5,3.7-1.5c1.4,0,2.7,0.5,3.7,1.5c1,1,1.5,2.3,1.5,3.7c0,3-2.4,5.4-5.4,5.4
	c-3,0-5.4-2.4-5.4-5.4C58.8,49.6,59.4,48.3,60.5,47.3z M66.5,53.4c0.5-0.5,1-1.4,1-2.3c0-0.9-0.3-1.6-1-2.3c-0.5-0.5-1.4-1-2.3-1
	c-1.8,0-3.2,1.4-3.2,3.2c0,1.8,1.4,3.2,3.2,3.2C65.1,54.2,65.9,53.9,66.5,53.4z M66,52.8c-0.4,0.4-1.1,0.8-1.8,0.8
	c-1.3,0-2.5-1.1-2.5-2.5s1.1-2.5,2.5-2.5c0.7,0,1.3,0.2,1.8,0.8c0.4,0.4,0.8,1.1,0.8,1.8C66.7,51.7,66.4,52.4,66,52.8z"/>
<path class="st0" d="M73,59.8c-1.1,1.1-1.6,2.5-1.6,4.1c0,3.1,2.5,5.7,5.7,5.7s5.7-2.5,5.7-5.7c0-1.5-0.5-3-1.6-4.1
	c-1.1-1.1-2.5-1.6-4.1-1.6C75.5,58.2,74.1,58.7,73,59.8z M79,65.9c-0.5,0.5-1.2,0.9-2,0.9c-1.5,0-2.9-1.3-2.9-2.9
	c0-1.5,1.3-2.9,2.9-2.9c0.8,0,1.4,0.3,2,0.9s0.9,1.2,0.9,2C79.9,64.7,79.6,65.3,79,65.9z"/>
<path class="st1" d="M72.8,59.6c-1.1,1.1-1.8,2.6-1.8,4.3c0,3.3,2.7,6,6,6c3.3,0,6-2.7,6-6c0-1.6-0.7-3.2-1.8-4.3s-2.6-1.8-4.3-1.8
	C75.4,57.9,73.9,58.4,72.8,59.6z M73.2,60.1c1-1,2.3-1.5,3.7-1.5s2.7,0.5,3.7,1.5s1.5,2.3,1.5,3.7c0,3-2.4,5.4-5.4,5.4
	s-5.2-2.4-5.2-5.3C71.7,62.5,72.2,61,73.2,60.1z M79.3,66.1c0.5-0.5,1-1.4,1-2.3s-0.3-1.6-1-2.3c-0.5-0.5-1.4-1-2.3-1
	c-1.8,0-3.2,1.4-3.2,3.2c0,1.8,1.4,3.2,3.2,3.2C77.8,67.1,78.7,66.8,79.3,66.1z M78.8,65.7c-0.4,0.4-1.1,0.8-1.8,0.8
	c-1.3,0-2.5-1.1-2.5-2.5c0-1.4,1.1-2.5,2.5-2.5c0.7,0,1.3,0.2,1.8,0.8c0.4,0.4,0.8,1.1,0.8,1.8C79.5,64.6,79.3,65.2,78.8,65.7z"/>
<path class="st0" d="M60.2,72.7c-1.1,1.1-1.6,2.5-1.6,4.1c0,3.1,2.5,5.7,5.7,5.7c3.1,0,5.7-2.5,5.7-5.7c0-1.5-0.5-3-1.6-4.1
	c-1.1-1.1-2.5-1.6-4.1-1.6C62.7,70.9,61.3,71.6,60.2,72.7z M66.2,78.7c-0.5,0.5-1.2,0.9-2,0.9c-1.5,0-2.9-1.3-2.9-2.9
	s1.3-2.9,2.9-2.9c0.8,0,1.4,0.3,2,0.9s0.9,1.2,0.9,2S66.7,78.2,66.2,78.7z"/>
<path class="st1" d="M59.9,72.4c-1.1,1.1-1.8,2.6-1.8,4.3c0,3.3,2.7,6,6,6c3.3,0,6-2.7,6-6c0-1.6-0.7-3.2-1.8-4.3
	c-1.1-1.1-2.6-1.8-4.3-1.8C62.6,70.6,61,71.3,59.9,72.4z M60.5,72.9c1-1,2.3-1.5,3.7-1.5c1.4,0,2.7,0.5,3.7,1.5c1,1,1.5,2.3,1.5,3.7
	c0,3-2.4,5.4-5.4,5.4c-3,0-5.4-2.4-5.4-5.4C58.8,75.2,59.4,73.9,60.5,72.9z M66.5,79c0.5-0.5,1-1.4,1-2.3s-0.3-1.6-1-2.3
	c-0.5-0.5-1.4-1-2.3-1c-1.8,0-3.2,1.4-3.2,3.2c0,1.8,1.4,3.2,3.2,3.2C65.1,79.9,65.9,79.5,66.5,79z M66,78.4
	c-0.4,0.4-1.1,0.8-1.8,0.8c-1.3,0-2.5-1.1-2.5-2.5s1.1-2.5,2.5-2.5c0.7,0,1.3,0.2,1.8,0.8c0.4,0.4,0.8,1.1,0.8,1.8S66.4,78,66,78.4z
	"/>
</svg>
