<svg width="100" height="100" viewBox="0 0 100 100" fill="none" xmlns="http://www.w3.org/2000/svg">
<path d="M91.4932 43.9034C88.7814 43.9056 86.3957 45.7602 85.7174 48.394H78.0611C77.7208 41.8953 75.1582 35.7088 70.8077 30.8807L76.2626 25.4096C77.1812 25.9522 78.2275 26.2389 79.2938 26.2389C82.569 26.2389 85.2637 23.5363 85.2637 20.2514C85.2637 16.9666 82.569 14.264 79.2938 14.264C76.0186 14.264 73.324 16.9666 73.324 20.2514C73.324 21.3209 73.6098 22.3702 74.1508 23.2916L68.6585 28.7626C63.8446 24.3992 57.6762 21.8291 51.1967 21.4878V13.7715C53.8242 13.0912 55.6741 10.6954 55.6741 7.97415C55.6741 4.68928 52.9794 1.98669 49.7042 1.98669C46.429 1.98669 43.7344 4.68928 43.7344 7.97415C43.7344 10.6954 45.5843 13.0912 48.2118 13.7715V21.4878C41.7322 21.8291 35.5639 24.3992 30.7499 28.7626L25.295 23.2916C25.836 22.3702 26.1218 21.3209 26.1218 20.2514C26.1218 16.9666 23.4272 14.264 20.152 14.264C16.8767 14.264 14.1821 16.9666 14.1821 20.2514C14.1821 23.5363 16.8767 26.2389 20.152 26.2389C21.2183 26.2389 22.2645 25.9522 23.1831 25.4096L28.6381 30.8807C24.2876 35.7088 21.725 41.8953 21.3847 48.394H13.6911C13.0127 45.7587 10.6241 43.9034 7.91076 43.9034C4.63555 43.9034 1.9409 46.606 1.9409 49.8908C1.9409 53.1757 4.63555 55.8783 7.91076 55.8783C10.6241 55.8783 13.0127 54.0229 13.6911 51.3877H21.3847C21.725 57.8863 24.2876 64.0729 28.6381 68.901L23.1831 74.372C22.2645 73.8294 21.2183 73.5428 20.152 73.5428C16.8767 73.5428 14.1821 76.2454 14.1821 79.5302C14.1821 82.8151 16.8767 85.5177 20.152 85.5177C23.4272 85.5177 26.1218 82.8151 26.1218 79.5302C26.1218 78.4607 25.836 77.4114 25.295 76.4901L30.7499 71.0191C35.5587 75.3959 41.7278 77.9795 48.2118 78.3312V86.0476C45.5843 86.7279 43.7344 89.1236 43.7344 91.8449C43.7344 95.1298 46.429 97.8324 49.7042 97.8324C52.9794 97.8324 55.6741 95.1298 55.6741 91.8449C55.6741 89.1236 53.8242 86.7279 51.1967 86.0476V78.3312C57.6762 77.99 63.8446 75.4198 68.6585 71.0565L74.1135 76.5275C73.5725 77.4488 73.2867 78.4981 73.2867 79.5677C73.2867 82.8525 75.9813 85.5551 79.2565 85.5551C82.5317 85.5551 85.2264 82.8525 85.2264 79.5677C85.2264 76.2828 82.5317 73.5802 79.2565 73.5802C78.1902 73.5802 77.1439 73.8669 76.2253 74.4095L70.7704 68.901C75.1343 64.0781 77.7103 57.8908 78.0611 51.3877H85.7547C86.433 54.0229 88.8217 55.8783 91.535 55.8783C94.8102 55.8783 97.5049 53.1749 97.5049 49.8908C97.5049 46.606 94.8102 43.9034 91.535 43.9034C91.5208 43.9034 91.5074 43.9034 91.4932 43.9034ZM77.1432 18.1349C77.7029 17.5728 78.4633 17.257 79.255 17.257C80.8923 17.257 82.24 18.6086 82.24 20.2507C82.24 21.8927 80.8923 23.2444 79.255 23.2444C77.6185 23.2444 76.2716 21.8942 76.2701 20.2529C76.2694 19.4588 76.5835 18.6969 77.1432 18.1349ZM46.7193 7.97864C46.7193 6.33658 48.067 4.98491 49.7042 4.98491C51.3415 4.98491 52.6892 6.33658 52.6892 7.97864C52.6892 9.6207 51.3415 10.9724 49.7042 10.9724C48.067 10.9724 46.7193 9.6207 46.7193 7.97864ZM18.0416 22.371C17.4819 21.8097 17.167 21.047 17.167 20.2529C17.167 18.6094 18.5147 17.2577 20.1534 17.2577C20.9452 17.2577 21.7056 17.5735 22.2653 18.1349C22.825 18.6962 23.1399 19.4588 23.1399 20.2529C23.1399 21.8965 21.7922 23.2481 20.1534 23.2481C19.3617 23.2481 18.6013 22.9323 18.0416 22.371ZM7.91524 52.8846C6.278 52.8846 4.93031 51.5329 4.93031 49.8908C4.93031 48.2488 6.278 46.8971 7.91524 46.8971C9.55247 46.8971 10.9002 48.2488 10.9002 49.8908C10.9002 51.5329 9.55247 52.8846 7.91524 52.8846ZM22.2653 81.6468C21.7056 82.2081 20.9452 82.524 20.1534 82.524C18.5147 82.524 17.167 81.1723 17.167 79.5287C17.167 78.7346 17.4819 77.972 18.0416 77.4107C18.6013 76.8493 19.3617 76.5335 20.1534 76.5335C21.7922 76.5335 23.1399 77.8852 23.1399 79.5287C23.1399 80.3228 22.825 81.0855 22.2653 81.6468ZM52.6892 91.803C52.6892 93.4451 51.3415 94.7967 49.7042 94.7967C48.067 94.7967 46.7193 93.4451 46.7193 91.803C46.7193 90.161 48.067 88.8093 49.7042 88.8093C51.3415 88.8093 52.6892 90.161 52.6892 91.803ZM81.3669 77.4107C81.9265 77.972 82.2414 78.7346 82.2414 79.5287C82.2414 81.1723 80.8938 82.524 79.255 82.524C78.4633 82.524 77.7029 82.2081 77.1432 81.6468C76.5835 81.0855 76.2686 80.3228 76.2686 79.5287C76.2686 77.8852 77.6163 76.5335 79.255 76.5335C80.0468 76.5335 80.8072 76.8493 81.3669 77.4107ZM49.7042 75.3375C35.7855 75.3375 24.3323 63.8506 24.3323 49.8908C24.3323 35.9311 35.7855 24.4441 49.7042 24.4441C63.623 24.4441 75.0761 35.9311 75.0761 49.8908C75.0761 63.8506 63.623 75.3375 49.7042 75.3375ZM91.4932 52.8846C89.856 52.8846 88.5083 51.5329 88.5083 49.8908C88.5083 48.2488 89.856 46.8971 91.4932 46.8971C93.1305 46.8971 94.4782 48.2488 94.4782 49.8908C94.4782 51.5329 93.1305 52.8846 91.4932 52.8846Z" fill="#C4C4C4"/>
<path fill-rule="evenodd" clip-rule="evenodd" d="M91.4919 42.3409C88.489 42.3439 85.8026 44.1453 84.6116 46.8322C84.6123 46.8315 79.5074 46.8315 79.5074 46.8315C78.9119 41.0117 76.6254 35.4912 72.9338 30.961C72.9338 30.9617 76.5874 27.2974 76.5874 27.2974C77.4478 27.6297 78.3649 27.8018 79.2939 27.8018C83.4251 27.8018 86.8264 24.395 86.8264 20.2517C86.8264 16.1083 83.4251 12.7015 79.2939 12.7015C75.1628 12.7015 71.7615 16.1083 71.7615 20.2517C71.7615 21.1827 71.9339 22.1025 72.2652 22.9655C72.2652 22.9647 68.5818 26.6343 68.5818 26.6343C64.0648 22.9325 58.5614 20.6401 52.7594 20.0428V14.8749C55.4384 13.6804 57.2368 10.9861 57.2368 7.97438C57.2368 3.83106 53.8355 0.424194 49.7043 0.424194C45.5732 0.424194 42.1719 3.83106 42.1719 7.97438C42.1719 10.9861 43.9703 13.6804 46.6493 14.8749V20.0428C40.8488 20.6401 35.3468 22.9318 30.8306 26.6313L27.1793 22.9692C27.5121 22.1055 27.6845 21.1842 27.6845 20.2517C27.6845 16.1083 24.2832 12.7015 20.1521 12.7015C16.0209 12.7015 12.6196 16.1083 12.6196 20.2517C12.6196 24.395 16.0209 27.8018 20.1521 27.8018C21.0811 27.8018 21.9982 27.6297 22.8586 27.2974L26.5122 30.9617C22.8206 35.4912 20.5341 41.0117 19.9386 46.8315H14.7964C13.6054 44.1431 10.9159 42.3409 7.91087 42.3409C3.77973 42.3409 0.378403 45.7477 0.378403 49.8911C0.378403 54.0344 3.77973 57.4412 7.91087 57.4412C10.9152 57.4412 13.6054 55.639 14.7971 52.9499C14.7964 52.9506 19.9386 52.9506 19.9386 52.9506C20.5341 58.7705 22.8206 64.2909 26.5122 68.8212C26.5122 68.8204 22.8586 72.4847 22.8586 72.4847C21.9982 72.1524 21.0811 71.9803 20.1521 71.9803C16.0209 71.9803 12.6196 75.3871 12.6196 79.5305C12.6196 83.6738 16.0209 87.0806 20.1521 87.0806C24.2832 87.0806 27.6845 83.6738 27.6845 79.5305C27.6845 78.5979 27.5121 77.6766 27.1793 76.8129L30.8291 73.1531C35.3416 76.8653 40.8451 79.1682 46.6493 79.7745V84.9446C43.9703 86.1391 42.1719 88.8335 42.1719 91.8452C42.1719 95.9885 45.5732 99.3953 49.7043 99.3953C53.8355 99.3953 57.2368 95.9885 57.2368 91.8452C57.2368 88.8335 55.4384 86.1391 52.7594 84.9446V79.7767C58.5599 79.1795 64.0618 76.8877 68.578 73.1882L72.2294 76.8503C71.8965 77.714 71.7242 78.6353 71.7242 79.5679C71.7242 83.7112 75.1255 87.1181 79.2566 87.1181C83.3878 87.1181 86.7891 83.7112 86.7891 79.5679C86.7891 75.4246 83.3878 72.0177 79.2566 72.0177C78.3291 72.0177 77.4127 72.1898 76.5538 72.5206L72.8957 68.8264C76.6015 64.2991 78.9007 58.7764 79.5051 52.9506H84.6497C85.8406 55.639 88.5301 57.4412 91.5351 57.4412C95.6663 57.4412 99.0676 54.0336 99.0676 49.8911C99.0676 45.7477 95.6663 42.3409 91.5351 42.3409H91.4919ZM51.1267 91.8033C51.1267 92.5869 50.4856 93.2343 49.7043 93.2343C48.923 93.2343 48.282 92.5869 48.282 91.8033C48.282 91.0196 48.923 90.3722 49.7043 90.3722C50.4856 90.3722 51.1267 91.0196 51.1267 91.8033ZM49.7043 86.5103C49.6103 86.8149 49.4238 87.0836 49.1745 87.2782C49.3484 87.2573 49.5252 87.2468 49.7043 87.2468C49.8834 87.2468 50.0603 87.2573 50.2342 87.2782C49.9849 87.0836 49.7984 86.8149 49.7043 86.5103ZM21.1587 80.5438C20.8923 80.811 20.5304 80.9622 20.1536 80.9622C19.3708 80.9622 18.7297 80.3141 18.7297 79.529C18.7297 79.1488 18.8797 78.7828 19.1484 78.5141C19.4148 78.2469 19.7767 78.0957 20.1536 78.0957C20.9363 78.0957 21.5774 78.7439 21.5774 79.529C21.5774 79.9092 21.4274 80.2744 21.1587 80.5438ZM80.2603 78.5141C80.529 78.7835 80.6789 79.1488 80.6789 79.529C80.6789 80.3141 80.0379 80.9622 79.2551 80.9622C78.8783 80.9622 78.5164 80.811 78.25 80.5438C77.9813 80.2752 77.8313 79.9092 77.8313 79.529C77.8313 78.7439 78.4723 78.0957 79.2551 78.0957C79.632 78.0957 79.9939 78.2469 80.2603 78.5141ZM48.8021 76.8848C49.2335 77.0606 49.5663 77.4221 49.7043 77.8689C49.8424 77.4221 50.1752 77.0599 50.6065 76.8848C50.3058 76.8952 50.0058 76.9005 49.7043 76.9005C49.4029 76.9005 49.1029 76.8952 48.8021 76.8848ZM23.9183 75.7509C23.6079 75.917 23.2497 75.9724 22.9042 75.9095C23.2243 76.1543 23.5109 76.4409 23.7564 76.7598C23.6959 76.4162 23.7526 76.06 23.9183 75.7509ZM75.4904 75.7883C75.6486 76.0832 75.7075 76.4215 75.6598 76.75C75.8881 76.4552 76.1516 76.1887 76.4433 75.9567C76.1172 76.0031 75.7829 75.9447 75.4904 75.7883ZM49.7043 73.775C36.6416 73.775 25.8951 62.9924 25.8951 49.8911C25.8951 36.7898 36.6416 26.0071 49.7043 26.0071C62.7671 26.0071 73.5136 36.7898 73.5136 49.8911C73.5136 62.9924 62.7671 73.775 49.7043 73.775ZM69.3183 68.3242C68.8944 68.777 68.4557 69.2156 68.0027 69.6384C68.4557 69.4281 68.9877 69.4483 69.4243 69.6946C69.178 69.2769 69.1414 68.7688 69.3183 68.3242ZM30.0904 68.3242C30.2598 68.75 30.2337 69.2335 30.015 69.6399C30.4225 69.4229 30.9075 69.3982 31.3329 69.5696C30.9053 69.1677 30.4911 68.7523 30.0904 68.3242ZM91.4933 51.3221C90.712 51.3221 90.071 50.6747 90.071 49.8911C90.071 49.1075 90.712 48.4601 91.4933 48.4601C92.2746 48.4601 92.9157 49.1075 92.9157 49.8911C92.9157 50.6747 92.2746 51.3221 91.4933 51.3221ZM7.91535 51.3221C7.13404 51.3221 6.49303 50.6747 6.49303 49.8911C6.49303 49.1075 7.13404 48.4601 7.91535 48.4601C8.69665 48.4601 9.33767 49.1075 9.33767 49.8911C9.33767 50.6747 8.69665 51.3221 7.91535 51.3221ZM76.6239 49.0064C76.6336 49.299 76.6388 49.5947 76.6388 49.8911C76.6388 50.1874 76.6336 50.4831 76.6239 50.775C76.8045 50.3506 77.1672 50.0243 77.6119 49.8911C77.1672 49.7578 76.8045 49.4315 76.6239 49.0064ZM22.7825 49.0932C22.5907 49.4757 22.2482 49.7668 21.8341 49.8911C22.2482 50.0153 22.5915 50.3064 22.7825 50.6889C22.7736 50.4239 22.7698 50.1575 22.7698 49.8911C22.7698 49.6246 22.7736 49.3582 22.7825 49.0932ZM12.4256 49.3103C12.4502 49.5004 12.4629 49.6942 12.4629 49.8911C12.4629 50.0879 12.4502 50.2817 12.4256 50.4718C12.6263 50.1949 12.9136 49.9899 13.2427 49.8911C12.9136 49.7923 12.6263 49.5872 12.4256 49.3103ZM86.9831 49.3103C86.7861 49.5827 86.5055 49.7848 86.1832 49.8858C86.4981 49.9749 86.7749 50.1612 86.9764 50.4142C86.9562 50.2421 86.9458 50.0677 86.9458 49.8911C86.9458 49.6942 86.9585 49.5004 86.9831 49.3103ZM91.4821 42.3409H91.4919H91.4821ZM69.4482 30.1115C69.0295 30.357 68.5206 30.3914 68.0758 30.2125C68.5273 30.6369 68.9646 31.0762 69.387 31.5305C69.1788 31.0777 69.2011 30.5471 69.4482 30.1115ZM30.015 30.1422C30.2337 30.5486 30.2598 31.0321 30.0904 31.4579C30.4911 31.0298 30.9053 30.6144 31.3329 30.2125C30.9068 30.3839 30.4225 30.3592 30.015 30.1422ZM75.6978 23.0755C75.7441 23.4026 75.6852 23.7379 75.5277 24.0312C75.8262 23.8718 76.1687 23.8142 76.5008 23.8658C76.2023 23.6361 75.9322 23.3704 75.6978 23.0755ZM23.7564 23.0224C23.5109 23.3412 23.2243 23.6278 22.9042 23.8726C23.2497 23.8097 23.6079 23.8651 23.9183 24.0312C23.7526 23.7221 23.6959 23.3659 23.7564 23.0224ZM49.7043 21.9506C49.576 22.3652 49.2797 22.7073 48.8924 22.8944C49.1618 22.8861 49.4327 22.8816 49.7043 22.8816C49.976 22.8816 50.2469 22.8861 50.5162 22.8944C50.1289 22.7073 49.8327 22.3652 49.7043 21.9506ZM19.1484 21.268C18.8797 20.9986 18.7297 20.6334 18.7297 20.2532C18.7297 19.468 19.3708 18.8199 20.1536 18.8199C20.5304 18.8199 20.8923 18.9711 21.1587 19.2383C21.4274 19.507 21.5774 19.8729 21.5774 20.2532C21.5774 21.0383 20.9363 21.6864 20.1536 21.6864C19.7767 21.6864 19.4148 21.5352 19.1484 21.268ZM78.2507 19.2375C78.5164 18.9703 78.8783 18.8199 79.2551 18.8199C80.0364 18.8199 80.6775 19.4665 80.6775 20.2509C80.6775 21.0345 80.0364 21.6819 79.2551 21.6819C78.4738 21.6819 77.8336 21.0353 77.8328 20.2517C77.8321 19.8715 77.9828 19.507 78.2507 19.2375ZM50.2946 12.4964C50.1013 12.5218 49.9043 12.5353 49.7043 12.5353C49.5044 12.5353 49.3073 12.5218 49.1141 12.4964C49.3939 12.694 49.6029 12.9799 49.7043 13.3092C49.8058 12.9799 50.0148 12.694 50.2946 12.4964ZM48.282 7.97887C48.282 7.19526 48.923 6.54786 49.7043 6.54786C50.4856 6.54786 51.1267 7.19526 51.1267 7.97887C51.1267 8.76248 50.4856 9.40987 49.7043 9.40987C48.923 9.40987 48.282 8.76248 48.282 7.97887Z" fill="#C4C4C4"/>
<path d="M31.5156 45.5782C30.3453 46.7493 29.6875 48.3391 29.6875 49.9954C29.6875 53.4235 32.5086 56.2454 35.9375 56.2454C39.3664 56.2454 42.1875 53.4235 42.1875 49.9954C42.1875 48.3391 41.5297 46.7493 40.3594 45.5782C39.1875 44.4048 37.5953 43.7454 35.9375 43.7454C34.2797 43.7454 32.6875 44.4048 31.5156 45.5782ZM38.1484 52.211C37.5625 52.7962 36.768 53.1251 35.9398 53.1251C34.2258 53.1251 32.8148 51.7141 32.8148 50.0001C32.8148 48.286 34.2258 46.8751 35.9398 46.8751C36.768 46.8751 37.5625 47.204 38.1484 47.7891C38.7352 48.3751 39.0648 49.1712 39.0648 50.0001C39.0648 50.829 38.7352 51.6251 38.1484 52.211Z" fill="#C4C4C4"/>
<path fill-rule="evenodd" clip-rule="evenodd" d="M31.2391 45.3024C29.9961 46.547 29.2969 48.236 29.2969 49.9954C29.2969 53.6384 32.2945 56.636 35.9375 56.636C39.5805 56.636 42.5781 53.6384 42.5781 49.9954C42.5781 48.236 41.8789 46.547 40.6359 45.3024C39.3906 44.0555 37.6992 43.3548 35.9375 43.3548C34.1758 43.3548 32.4844 44.0555 31.2391 45.3024ZM31.7922 45.854C32.8906 44.7548 34.3828 44.136 35.9375 44.136C37.4922 44.136 38.9844 44.7548 40.0828 45.854C41.1797 46.9524 41.7969 48.443 41.7969 49.9954C41.7969 53.2094 39.1516 55.8548 35.9375 55.8548C32.7234 55.8548 30.0781 53.2094 30.0781 49.9954C30.0781 48.443 30.6953 46.9524 31.7922 45.854ZM38.4242 52.4876C39.0844 51.8282 39.4555 50.9329 39.4555 50.0001C39.4555 49.0673 39.0844 48.172 38.4242 47.5126C37.7656 46.8548 36.8711 46.4845 35.9398 46.4845C34.0117 46.4845 32.4242 48.0712 32.4242 50.0001C32.4242 51.929 34.0117 53.5157 35.9398 53.5157C36.8711 53.5157 37.7656 53.1454 38.4242 52.4876ZM37.8727 51.9344C37.3602 52.4469 36.6641 52.7344 35.9398 52.7344C34.4398 52.7344 33.2055 51.5001 33.2055 50.0001C33.2055 48.5001 34.4398 47.2657 35.9398 47.2657C36.6641 47.2657 37.3602 47.5532 37.8727 48.0657C38.3859 48.5782 38.6742 49.2743 38.6742 50.0001C38.6742 50.7259 38.3859 51.4219 37.8727 51.9344Z" fill="#C4C4C4"/>
<path d="M45.5781 31.5157C44.4078 32.6868 43.75 34.2767 43.75 35.9329C43.75 39.361 46.5711 42.1829 50 42.1829C53.4289 42.1829 56.25 39.361 56.25 35.9329C56.25 34.2767 55.5922 32.6868 54.4219 31.5157C53.25 30.3423 51.6578 29.6829 50 29.6829C48.3422 29.6829 46.75 30.3423 45.5781 31.5157ZM52.2109 38.1485C51.625 38.7337 50.8305 39.0626 50.0023 39.0626C48.2883 39.0626 46.8773 37.6517 46.8773 35.9376C46.8773 34.2235 48.2883 32.8126 50.0023 32.8126C50.8305 32.8126 51.625 33.1415 52.2109 33.7267C52.7977 34.3126 53.1273 35.1087 53.1273 35.9376C53.1273 36.7665 52.7977 37.5626 52.2109 38.1485Z" fill="#C4C4C4"/>
<path fill-rule="evenodd" clip-rule="evenodd" d="M45.3016 31.2399C44.0586 32.4845 43.3594 34.1735 43.3594 35.9329C43.3594 39.5759 46.357 42.5735 50 42.5735C53.643 42.5735 56.6406 39.5759 56.6406 35.9329C56.6406 34.1735 55.9414 32.4845 54.6984 31.2399C53.4531 29.9931 51.7617 29.2923 50 29.2923C48.2383 29.2923 46.5469 29.9931 45.3016 31.2399ZM45.8547 31.7915C46.9531 30.6923 48.4453 30.0735 50 30.0735C51.5547 30.0735 53.0469 30.6923 54.1453 31.7915C55.2422 32.8899 55.8594 34.3806 55.8594 35.9329C55.8594 39.147 53.2141 41.7923 50 41.7923C46.7859 41.7923 44.1406 39.147 44.1406 35.9329C44.1406 34.3806 44.7578 32.8899 45.8547 31.7915ZM52.4867 38.4251C53.1469 37.7657 53.518 36.8704 53.518 35.9376C53.518 35.0048 53.1469 34.1095 52.4867 33.4501C51.8281 32.7923 50.9336 32.422 50.0023 32.422C48.0742 32.422 46.4867 34.0087 46.4867 35.9376C46.4867 37.8665 48.0742 39.4532 50.0023 39.4532C50.9336 39.4532 51.8281 39.0829 52.4867 38.4251ZM51.9352 37.872C51.4227 38.3845 50.7266 38.672 50.0023 38.672C48.5023 38.672 47.268 37.4376 47.268 35.9376C47.268 34.4376 48.5023 33.2032 50.0023 33.2032C50.7266 33.2032 51.4227 33.4907 51.9352 34.0032C52.4484 34.5157 52.7367 35.2118 52.7367 35.9376C52.7367 36.6634 52.4484 37.3595 51.9352 37.872Z" fill="#C4C4C4"/>
<path d="M59.6406 45.5782C58.4703 46.7493 57.8125 48.3391 57.8125 49.9954C57.8125 53.4235 60.6336 56.2454 64.0625 56.2454C67.4914 56.2454 70.3125 53.4235 70.3125 49.9954C70.3125 48.3391 69.6547 46.7493 68.4844 45.5782C67.3125 44.4048 65.7203 43.7454 64.0625 43.7454C62.4047 43.7454 60.8125 44.4048 59.6406 45.5782ZM66.2734 52.211C65.6875 52.7962 64.893 53.1251 64.0648 53.1251C62.3508 53.1251 60.9398 51.7141 60.9398 50.0001C60.9398 48.286 62.3508 46.8751 64.0648 46.8751C64.893 46.8751 65.6875 47.204 66.2734 47.7891C66.8602 48.3751 67.1898 49.1712 67.1898 50.0001C67.1898 50.829 66.8602 51.6251 66.2734 52.211Z" fill="#C4C4C4"/>
<path fill-rule="evenodd" clip-rule="evenodd" d="M59.3641 45.3024C58.1211 46.547 57.4219 48.236 57.4219 49.9954C57.4219 53.6384 60.4195 56.636 64.0625 56.636C67.7055 56.636 70.7031 53.6384 70.7031 49.9954C70.7031 48.236 70.0039 46.547 68.7609 45.3024C67.5156 44.0555 65.8242 43.3548 64.0625 43.3548C62.3008 43.3548 60.6094 44.0555 59.3641 45.3024ZM59.9172 45.854C61.0156 44.7548 62.5078 44.136 64.0625 44.136C65.6172 44.136 67.1094 44.7548 68.2078 45.854C69.3047 46.9524 69.9219 48.443 69.9219 49.9954C69.9219 53.2094 67.2766 55.8548 64.0625 55.8548C60.8484 55.8548 58.2031 53.2094 58.2031 49.9954C58.2031 48.443 58.8203 46.9524 59.9172 45.854ZM66.5492 52.4876C67.2094 51.8282 67.5805 50.9329 67.5805 50.0001C67.5805 49.0673 67.2094 48.172 66.5492 47.5126C65.8906 46.8548 64.9961 46.4845 64.0648 46.4845C62.1367 46.4845 60.5492 48.0712 60.5492 50.0001C60.5492 51.929 62.1367 53.5157 64.0648 53.5157C64.9961 53.5157 65.8906 53.1454 66.5492 52.4876ZM65.9977 51.9344C65.4852 52.4469 64.7891 52.7344 64.0648 52.7344C62.5648 52.7344 61.3305 51.5001 61.3305 50.0001C61.3305 48.5001 62.5648 47.2657 64.0648 47.2657C64.7891 47.2657 65.4852 47.5532 65.9977 48.0657C66.5109 48.5782 66.7992 49.2743 66.7992 50.0001C66.7992 50.7259 66.5109 51.4219 65.9977 51.9344Z" fill="#C4C4C4"/>
<path d="M45.5781 59.6407C44.4078 60.8118 43.75 62.4017 43.75 64.0579C43.75 67.486 46.5711 70.3079 50 70.3079C53.4289 70.3079 56.25 67.486 56.25 64.0579C56.25 62.4017 55.5922 60.8118 54.4219 59.6407C53.25 58.4673 51.6578 57.8079 50 57.8079C48.3422 57.8079 46.75 58.4673 45.5781 59.6407ZM52.2109 66.2735C51.625 66.8587 50.8305 67.1876 50.0023 67.1876C48.2883 67.1876 46.8773 65.7767 46.8773 64.0626C46.8773 62.3485 48.2883 60.9376 50.0023 60.9376C50.8305 60.9376 51.625 61.2665 52.2109 61.8517C52.7977 62.4376 53.1273 63.2337 53.1273 64.0626C53.1273 64.8915 52.7977 65.6876 52.2109 66.2735Z" fill="#C4C4C4"/>
<path fill-rule="evenodd" clip-rule="evenodd" d="M45.3016 59.3649C44.0586 60.6095 43.3594 62.2985 43.3594 64.0579C43.3594 67.7009 46.357 70.6985 50 70.6985C53.643 70.6985 56.6406 67.7009 56.6406 64.0579C56.6406 62.2985 55.9414 60.6095 54.6984 59.3649C53.4531 58.118 51.7617 57.4173 50 57.4173C48.2383 57.4173 46.5469 58.118 45.3016 59.3649ZM45.8547 59.9165C46.9531 58.8173 48.4453 58.1985 50 58.1985C51.5547 58.1985 53.0469 58.8173 54.1453 59.9165C55.2422 61.0149 55.8594 62.5055 55.8594 64.0579C55.8594 67.272 53.2141 69.9173 50 69.9173C46.7859 69.9173 44.1406 67.272 44.1406 64.0579C44.1406 62.5055 44.7578 61.0149 45.8547 59.9165ZM52.4867 66.5501C53.1469 65.8907 53.518 64.9954 53.518 64.0626C53.518 63.1298 53.1469 62.2345 52.4867 61.5751C51.8281 60.9173 50.9336 60.547 50.0023 60.547C48.0742 60.547 46.4867 62.1337 46.4867 64.0626C46.4867 65.9915 48.0742 67.5782 50.0023 67.5782C50.9336 67.5782 51.8281 67.2079 52.4867 66.5501ZM51.9352 65.997C51.4227 66.5094 50.7266 66.797 50.0023 66.797C48.5023 66.797 47.268 65.5626 47.268 64.0626C47.268 62.5626 48.5023 61.3282 50.0023 61.3282C50.7266 61.3282 51.4227 61.6157 51.9352 62.1282C52.4484 62.6407 52.7367 63.3368 52.7367 64.0626C52.7367 64.7884 52.4484 65.4845 51.9352 65.997Z" fill="#C4C4C4"/>
</svg>
