<svg width="19" height="18" viewBox="0 0 19 18" fill="none" xmlns="http://www.w3.org/2000/svg">
<g clip-path="url(#clip0_1173_17213)">
<path d="M17.3152 7.90255C16.8287 7.90295 16.4008 8.23678 16.2791 8.71085H14.9056C14.8445 7.5411 14.3848 6.42752 13.6044 5.55846L14.583 4.57367C14.7477 4.67134 14.9354 4.72294 15.1267 4.72294C15.7143 4.72294 16.1977 4.23647 16.1977 3.6452C16.1977 3.05392 15.7143 2.56745 15.1267 2.56745C14.5392 2.56745 14.0558 3.05392 14.0558 3.6452C14.0558 3.83771 14.1071 4.02658 14.2041 4.19242L13.2188 5.17721C12.3553 4.3918 11.2487 3.92918 10.0863 3.86775V2.47881C10.5577 2.35635 10.8895 1.92512 10.8895 1.43529C10.8895 0.84401 10.4061 0.357544 9.8186 0.357544C9.23105 0.357544 8.74765 0.84401 8.74765 1.43529C8.74765 1.92512 9.07951 2.35635 9.55086 2.47881V3.86775C8.38849 3.92918 7.28193 4.3918 6.41835 5.17721L5.43978 4.19242C5.53683 4.02658 5.5881 3.83771 5.5881 3.6452C5.5881 3.05392 5.1047 2.56745 4.51716 2.56745C3.92961 2.56745 3.44621 3.05392 3.44621 3.6452C3.44621 4.23647 3.92961 4.72294 4.51716 4.72294C4.70846 4.72294 4.89614 4.67134 5.06093 4.57367L6.0395 5.55846C5.25905 6.42752 4.79935 7.5411 4.73831 8.71085H3.35813C3.23644 8.23651 2.80793 7.90255 2.32119 7.90255C1.73364 7.90255 1.25024 8.38901 1.25024 8.98029C1.25024 9.57156 1.73364 10.058 2.32119 10.058C2.80793 10.058 3.23644 9.72406 3.35813 9.24972H4.73831C4.79935 10.4195 5.25905 11.5331 6.0395 12.4021L5.06093 13.3869C4.89614 13.2892 4.70846 13.2376 4.51716 13.2376C3.92961 13.2376 3.44621 13.7241 3.44621 14.3154C3.44621 14.9067 3.92961 15.3931 4.51716 15.3931C5.1047 15.3931 5.5881 14.9067 5.5881 14.3154C5.5881 14.1229 5.53683 13.934 5.43978 13.7682L6.41835 12.7834C7.281 13.5712 8.38768 14.0362 9.55086 14.0996V15.4885C9.07951 15.611 8.74765 16.0422 8.74765 16.532C8.74765 17.1233 9.23105 17.6098 9.8186 17.6098C10.4061 17.6098 10.8895 17.1233 10.8895 16.532C10.8895 16.0422 10.5577 15.611 10.0863 15.4885V14.0996C11.2487 14.0381 12.3553 13.5755 13.2188 12.7901L14.1974 13.7749C14.1004 13.9407 14.0491 14.1296 14.0491 14.3221C14.0491 14.9134 14.5325 15.3999 15.12 15.3999C15.7076 15.3999 16.191 14.9134 16.191 14.3221C16.191 13.7308 15.7076 13.2444 15.12 13.2444C14.9287 13.2444 14.7411 13.296 14.5763 13.3936L13.5977 12.4021C14.3805 11.534 14.8427 10.4203 14.9056 9.24972H16.2858C16.4074 9.72406 16.836 10.058 17.3227 10.058C17.9102 10.058 18.3936 9.57143 18.3936 8.98029C18.3936 8.38901 17.9102 7.90255 17.3227 7.90255C17.3202 7.90255 17.3177 7.90255 17.3152 7.90255ZM14.7409 3.26421C14.8413 3.16304 14.9777 3.10619 15.1198 3.10619C15.4135 3.10619 15.6552 3.34949 15.6552 3.64506C15.6552 3.94063 15.4135 4.18393 15.1198 4.18393C14.8262 4.18393 14.5846 3.9409 14.5843 3.64546C14.5842 3.50253 14.6405 3.36539 14.7409 3.26421ZM9.28312 1.43609C9.28312 1.14052 9.52489 0.897223 9.8186 0.897223C10.1123 0.897223 10.3541 1.14052 10.3541 1.43609C10.3541 1.73166 10.1123 1.97496 9.8186 1.97496C9.52489 1.97496 9.28312 1.73166 9.28312 1.43609ZM4.13858 4.02672C4.03818 3.92568 3.98169 3.7884 3.98169 3.64546C3.98169 3.34962 4.22345 3.10632 4.51743 3.10632C4.65946 3.10632 4.79587 3.16318 4.89627 3.26421C4.99667 3.36525 5.05317 3.50253 5.05317 3.64546C5.05317 3.94131 4.8114 4.18461 4.51743 4.18461C4.37539 4.18461 4.23898 4.12775 4.13858 4.02672ZM2.32199 9.51916C2.02828 9.51916 1.78652 9.27586 1.78652 8.98029C1.78652 8.68472 2.02828 8.44142 2.32199 8.44142C2.6157 8.44142 2.85746 8.68472 2.85746 8.98029C2.85746 9.27586 2.6157 9.51916 2.32199 9.51916ZM4.89627 14.6964C4.79587 14.7974 4.65946 14.8542 4.51743 14.8542C4.22345 14.8542 3.98169 14.6109 3.98169 14.3151C3.98169 14.1722 4.03818 14.0349 4.13858 13.9339C4.23898 13.8328 4.37539 13.776 4.51743 13.776C4.8114 13.776 5.05317 14.0193 5.05317 14.3151C5.05317 14.458 4.99667 14.5953 4.89627 14.6964ZM10.3541 16.5245C10.3541 16.8201 10.1123 17.0634 9.8186 17.0634C9.52489 17.0634 9.28312 16.8201 9.28312 16.5245C9.28312 16.2289 9.52489 15.9856 9.8186 15.9856C10.1123 15.9856 10.3541 16.2289 10.3541 16.5245ZM15.4986 13.9339C15.599 14.0349 15.6555 14.1722 15.6555 14.3151C15.6555 14.6109 15.4137 14.8542 15.1198 14.8542C14.9777 14.8542 14.8413 14.7974 14.7409 14.6964C14.6405 14.5953 14.584 14.458 14.584 14.3151C14.584 14.0193 14.8258 13.776 15.1198 13.776C15.2618 13.776 15.3982 13.8328 15.4986 13.9339ZM9.8186 13.5607C7.32169 13.5607 5.26709 11.493 5.26709 8.98029C5.26709 6.46753 7.32169 4.39988 9.8186 4.39988C12.3155 4.39988 14.3701 6.46753 14.3701 8.98029C14.3701 11.493 12.3155 13.5607 9.8186 13.5607ZM17.3152 9.51916C17.0215 9.51916 16.7797 9.27586 16.7797 8.98029C16.7797 8.68472 17.0215 8.44142 17.3152 8.44142C17.6089 8.44142 17.8507 8.68472 17.8507 8.98029C17.8507 9.27586 17.6089 9.51916 17.3152 9.51916Z" fill="#716C6C"/>
<path fill-rule="evenodd" clip-rule="evenodd" d="M17.3151 7.6213C16.7764 7.62184 16.2945 7.9461 16.0808 8.42974C16.081 8.4296 15.1652 8.4296 15.1652 8.4296C15.0584 7.38204 14.6482 6.38836 13.9859 5.57291C13.9859 5.57305 14.6414 4.91347 14.6414 4.91347C14.7957 4.97329 14.9602 5.00427 15.1269 5.00427C15.868 5.00427 16.4782 4.39104 16.4782 3.64524C16.4782 2.89944 15.868 2.2862 15.1269 2.2862C14.3858 2.2862 13.7756 2.89944 13.7756 3.64524C13.7756 3.81283 13.8066 3.97839 13.866 4.13372C13.866 4.13359 13.2052 4.79411 13.2052 4.79411C12.3949 4.1278 11.4076 3.71516 10.3668 3.60765V2.67742C10.8474 2.46242 11.17 1.97743 11.17 1.43533C11.17 0.689529 10.5599 0.0762939 9.81877 0.0762939C9.07767 0.0762939 8.4675 0.689529 8.4675 1.43533C8.4675 1.97743 8.79012 2.46242 9.27071 2.67742V3.60765C8.23015 3.71516 7.24315 4.12766 6.43298 4.79357L5.77796 4.1344C5.83767 3.97893 5.86859 3.8131 5.86859 3.64524C5.86859 2.89944 5.25842 2.2862 4.51733 2.2862C3.77623 2.2862 3.16606 2.89944 3.16606 3.64524C3.16606 4.39104 3.77623 5.00427 4.51733 5.00427C4.68399 5.00427 4.84852 4.97329 5.00287 4.91347L5.65828 5.57305C4.99604 6.38836 4.58587 7.38204 4.47904 8.4296H3.55656C3.3429 7.9457 2.86044 7.6213 2.32136 7.6213C1.58026 7.6213 0.970093 8.23453 0.970093 8.98033C0.970093 9.72613 1.58026 10.3394 2.32136 10.3394C2.86031 10.3394 3.3429 10.015 3.55669 9.53092C3.55656 9.53106 4.47904 9.53106 4.47904 9.53106C4.58587 10.5786 4.99604 11.5723 5.65828 12.3877C5.65828 12.3876 5.00287 13.0472 5.00287 13.0472C4.84852 12.9874 4.68399 12.9564 4.51733 12.9564C3.77623 12.9564 3.16606 13.5696 3.16606 14.3154C3.16606 15.0612 3.77623 15.6745 4.51733 15.6745C5.25842 15.6745 5.86859 15.0612 5.86859 14.3154C5.86859 14.1476 5.83767 13.9817 5.77796 13.8263L6.43271 13.1675C7.24221 13.8357 8.22949 14.2502 9.27071 14.3593V15.29C8.79012 15.505 8.4675 15.99 8.4675 16.5321C8.4675 17.2779 9.07767 17.8911 9.81877 17.8911C10.5599 17.8911 11.17 17.2779 11.17 16.5321C11.17 15.99 10.8474 15.505 10.3668 15.29V14.3597C11.4074 14.2522 12.3944 13.8397 13.2046 13.1738L13.8596 13.833C13.7999 13.9885 13.7689 14.1543 13.7689 14.3222C13.7689 15.068 14.3791 15.6812 15.1202 15.6812C15.8613 15.6812 16.4715 15.068 16.4715 14.3222C16.4715 13.5764 15.8613 12.9631 15.1202 12.9631C14.9538 12.9631 14.7894 12.9941 14.6353 13.0537L13.9791 12.3887C14.6439 11.5738 15.0564 10.5797 15.1648 9.53106H16.0877C16.3013 10.015 16.7838 10.3394 17.3229 10.3394C18.064 10.3394 18.6741 9.72599 18.6741 8.98033C18.6741 8.23453 18.064 7.6213 17.3229 7.6213H17.3151ZM10.0739 16.5245C10.0739 16.6656 9.95893 16.7821 9.81877 16.7821C9.67861 16.7821 9.56361 16.6656 9.56361 16.5245C9.56361 16.3835 9.67861 16.2669 9.81877 16.2669C9.95893 16.2669 10.0739 16.3835 10.0739 16.5245ZM9.81877 15.5718C9.8019 15.6266 9.76843 15.675 9.72372 15.71C9.75491 15.7063 9.78664 15.7044 9.81877 15.7044C9.85089 15.7044 9.88262 15.7063 9.91381 15.71C9.8691 15.675 9.83563 15.6266 9.81877 15.5718ZM4.69791 14.4978C4.65012 14.5459 4.5852 14.5731 4.51759 14.5731C4.37717 14.5731 4.26217 14.4565 4.26217 14.3152C4.26217 14.2467 4.28908 14.1808 4.33727 14.1325C4.38506 14.0844 4.44999 14.0572 4.51759 14.0572C4.65802 14.0572 4.77301 14.1738 4.77301 14.3152C4.77301 14.3836 4.74611 14.4493 4.69791 14.4978ZM15.3003 14.1325C15.3485 14.181 15.3754 14.2467 15.3754 14.3152C15.3754 14.4565 15.2604 14.5731 15.1199 14.5731C15.0523 14.5731 14.9874 14.5459 14.9396 14.4978C14.8914 14.4495 14.8645 14.3836 14.8645 14.3152C14.8645 14.1738 14.9795 14.0572 15.1199 14.0572C15.1875 14.0572 15.2525 14.0844 15.3003 14.1325ZM9.65692 13.8392C9.73429 13.8709 9.794 13.9359 9.81877 14.0164C9.84353 13.9359 9.90324 13.8707 9.98061 13.8392C9.92666 13.8411 9.87285 13.842 9.81877 13.842C9.76468 13.842 9.71087 13.8411 9.65692 13.8392ZM5.19296 13.6351C5.13727 13.665 5.07301 13.675 5.01103 13.6637C5.06846 13.7077 5.11987 13.7593 5.16391 13.8167C5.15307 13.7549 5.16324 13.6907 5.19296 13.6351ZM14.4446 13.6418C14.473 13.6949 14.4835 13.7558 14.475 13.8149C14.5159 13.7619 14.5632 13.7139 14.6155 13.6721C14.557 13.6805 14.4971 13.67 14.4446 13.6418ZM9.81877 13.2794C7.47541 13.2794 5.54757 11.3386 5.54757 8.98033C5.54757 6.6221 7.47541 4.68122 9.81877 4.68122C12.1621 4.68122 14.09 6.6221 14.09 8.98033C14.09 11.3386 12.1621 13.2794 9.81877 13.2794ZM13.3374 12.2983C13.2613 12.3798 13.1826 12.4587 13.1013 12.5349C13.1826 12.497 13.278 12.5006 13.3564 12.545C13.3122 12.4698 13.3056 12.3783 13.3374 12.2983ZM6.30018 12.2983C6.33057 12.3749 6.32588 12.462 6.28666 12.5351C6.35975 12.4961 6.44677 12.4916 6.52307 12.5225C6.44636 12.4501 6.37207 12.3754 6.30018 12.2983ZM17.3154 9.23791C17.1752 9.23791 17.0602 9.12138 17.0602 8.98033C17.0602 8.83928 17.1752 8.72275 17.3154 8.72275C17.4555 8.72275 17.5705 8.83928 17.5705 8.98033C17.5705 9.12138 17.4555 9.23791 17.3154 9.23791ZM2.32216 9.23791C2.182 9.23791 2.06701 9.12138 2.06701 8.98033C2.06701 8.83928 2.182 8.72275 2.32216 8.72275C2.46232 8.72275 2.57731 8.83928 2.57731 8.98033C2.57731 9.12138 2.46232 9.23791 2.32216 9.23791ZM14.6479 8.82109C14.6497 8.87377 14.6506 8.92698 14.6506 8.98033C14.6506 9.03368 14.6497 9.08689 14.6479 9.13943C14.6803 9.06305 14.7454 9.00431 14.8252 8.98033C14.7454 8.95635 14.6803 8.89761 14.6479 8.82109ZM4.98921 8.83672C4.95481 8.90556 4.89336 8.95797 4.81907 8.98033C4.89336 9.00269 4.95494 9.0551 4.98921 9.12394C4.9876 9.07625 4.98694 9.02829 4.98694 8.98033C4.98694 8.93237 4.9876 8.88441 4.98921 8.83672ZM3.13126 8.87579C3.13567 8.91001 3.13795 8.9449 3.13795 8.98033C3.13795 9.01576 3.13567 9.05065 3.13126 9.08487C3.16727 9.03503 3.21881 8.99811 3.27784 8.98033C3.21881 8.96255 3.16727 8.92564 3.13126 8.87579ZM16.5063 8.87579C16.4709 8.92483 16.4206 8.9612 16.3628 8.97939C16.4193 8.99542 16.4689 9.02896 16.5051 9.0745C16.5015 9.04351 16.4996 9.01212 16.4996 8.98033C16.4996 8.9449 16.5019 8.91001 16.5063 8.87579ZM17.3134 7.6213H17.3151H17.3134ZM13.3606 5.42001C13.2855 5.4642 13.1942 5.47039 13.1145 5.4382C13.1955 5.51458 13.2739 5.59366 13.3497 5.67543C13.3123 5.59393 13.3163 5.49841 13.3606 5.42001ZM6.28666 5.42553C6.32588 5.49868 6.33057 5.58571 6.30018 5.66237C6.37207 5.58531 6.44636 5.51054 6.52307 5.4382C6.44663 5.46905 6.35975 5.4646 6.28666 5.42553ZM14.4818 4.15353C14.4901 4.2124 14.4795 4.27275 14.4513 4.32556C14.5048 4.29687 14.5663 4.28649 14.6258 4.29579C14.5723 4.25443 14.5238 4.20661 14.4818 4.15353ZM5.16391 4.14396C5.11987 4.20135 5.06846 4.25295 5.01103 4.297C5.07301 4.28569 5.13727 4.29565 5.19296 4.32556C5.16324 4.26992 5.15307 4.2058 5.16391 4.14396ZM9.81877 3.95105C9.79574 4.02568 9.7426 4.08725 9.67312 4.12093C9.72144 4.11944 9.77004 4.11864 9.81877 4.11864C9.86749 4.11864 9.91609 4.11944 9.96441 4.12093C9.89494 4.08725 9.84179 4.02568 9.81877 3.95105ZM4.33727 3.82818C4.28908 3.77969 4.26217 3.71394 4.26217 3.64551C4.26217 3.50419 4.37717 3.38752 4.51759 3.38752C4.5852 3.38752 4.65012 3.41474 4.69791 3.46283C4.74611 3.51119 4.77301 3.57707 4.77301 3.64551C4.77301 3.78683 4.65802 3.90349 4.51759 3.90349C4.44999 3.90349 4.38506 3.87628 4.33727 3.82818ZM14.9398 3.46269C14.9874 3.4146 15.0523 3.38752 15.1199 3.38752C15.2601 3.38752 15.3751 3.50392 15.3751 3.6451C15.3751 3.78615 15.2601 3.90268 15.1199 3.90268C14.9798 3.90268 14.8649 3.78629 14.8648 3.64524C14.8647 3.5768 14.8917 3.51119 14.9398 3.46269ZM9.92466 2.24929C9.88998 2.25387 9.85464 2.2563 9.81877 2.2563C9.78289 2.2563 9.74755 2.25387 9.71288 2.24929C9.76308 2.28486 9.80056 2.33632 9.81877 2.3956C9.83697 2.33632 9.87446 2.28486 9.92466 2.24929ZM9.56361 1.43614C9.56361 1.29509 9.67861 1.17855 9.81877 1.17855C9.95893 1.17855 10.0739 1.29509 10.0739 1.43614C10.0739 1.57718 9.95893 1.69372 9.81877 1.69372C9.67861 1.69372 9.56361 1.57718 9.56361 1.43614Z" fill="#716C6C"/>
<path d="M6.55573 8.20405C6.34579 8.41485 6.22778 8.70102 6.22778 8.99915C6.22778 9.61621 6.73386 10.1241 7.34898 10.1241C7.9641 10.1241 8.47018 9.61621 8.47018 8.99915C8.47018 8.70102 8.35218 8.41485 8.14223 8.20405C7.93201 7.99283 7.64638 7.87415 7.34898 7.87415C7.05158 7.87415 6.76596 7.99283 6.55573 8.20405ZM7.74561 9.39796C7.64049 9.50329 7.49796 9.56249 7.3494 9.56249C7.04191 9.56249 6.7888 9.30852 6.7888 8.99999C6.7888 8.69146 7.04191 8.43749 7.3494 8.43749C7.49796 8.43749 7.64049 8.49669 7.74561 8.60202C7.85086 8.70749 7.91 8.85079 7.91 8.99999C7.91 9.14919 7.85086 9.29249 7.74561 9.39796Z" fill="#716C6C"/>
<path fill-rule="evenodd" clip-rule="evenodd" d="M6.50613 8.15441C6.28315 8.37843 6.15771 8.68246 6.15771 8.99915C6.15771 9.65488 6.69547 10.1945 7.34899 10.1945C8.00251 10.1945 8.54026 9.65488 8.54026 8.99915C8.54026 8.68246 8.41483 8.37843 8.19185 8.15441C7.96845 7.92997 7.66503 7.80383 7.34899 7.80383C7.03295 7.80383 6.72953 7.92997 6.50613 8.15441ZM6.60535 8.25369C6.8024 8.05583 7.07009 7.94446 7.34899 7.94446C7.62789 7.94446 7.89557 8.05583 8.09263 8.25369C8.2894 8.45141 8.40011 8.71972 8.40011 8.99915C8.40011 9.57768 7.92557 10.0538 7.34899 10.0538C6.77241 10.0538 6.29786 9.57768 6.29786 8.99915C6.29786 8.71972 6.40858 8.45141 6.60535 8.25369ZM7.79509 9.44774C7.91351 9.32905 7.98008 9.1679 7.98008 8.99999C7.98008 8.83208 7.91351 8.67093 7.79509 8.55224C7.67694 8.43383 7.51647 8.36718 7.34941 8.36718C7.00352 8.36718 6.71873 8.65279 6.71873 8.99999C6.71873 9.34719 7.00352 9.6328 7.34941 9.6328C7.51647 9.6328 7.67694 9.56615 7.79509 9.44774ZM7.69614 9.34818C7.6042 9.44043 7.47933 9.49218 7.34941 9.49218C7.08032 9.49218 6.85888 9.26999 6.85888 8.99999C6.85888 8.72999 7.08032 8.5078 7.34941 8.5078C7.47933 8.5078 7.6042 8.55955 7.69614 8.6518C7.78822 8.74405 7.83993 8.86935 7.83993 8.99999C7.83993 9.13063 7.78822 9.25593 7.69614 9.34818Z" fill="#716C6C"/>
<path d="M9.07844 5.6728C8.86849 5.8836 8.75049 6.16977 8.75049 6.4679C8.75049 7.08496 9.25657 7.5929 9.87169 7.5929C10.4868 7.5929 10.9929 7.08496 10.9929 6.4679C10.9929 6.16977 10.8749 5.8836 10.6649 5.6728C10.4547 5.46158 10.1691 5.3429 9.87169 5.3429C9.57429 5.3429 9.28866 5.46158 9.07844 5.6728ZM10.2683 6.86671C10.1632 6.97204 10.0207 7.03124 9.87211 7.03124C9.56462 7.03124 9.31151 6.77727 9.31151 6.46874C9.31151 6.16021 9.56462 5.90624 9.87211 5.90624C10.0207 5.90624 10.1632 5.96544 10.2683 6.07077C10.3736 6.17624 10.4327 6.31954 10.4327 6.46874C10.4327 6.61794 10.3736 6.76124 10.2683 6.86671Z" fill="#716C6C"/>
<path fill-rule="evenodd" clip-rule="evenodd" d="M9.02883 5.62316C8.80585 5.84718 8.68042 6.15121 8.68042 6.4679C8.68042 7.12363 9.21817 7.66321 9.87169 7.66321C10.5252 7.66321 11.063 7.12363 11.063 6.4679C11.063 6.15121 10.9375 5.84718 10.7146 5.62316C10.4912 5.39872 10.1877 5.27258 9.87169 5.27258C9.55566 5.27258 9.25223 5.39872 9.02883 5.62316ZM9.12806 5.72244C9.32511 5.52458 9.5928 5.41321 9.87169 5.41321C10.1506 5.41321 10.4183 5.52458 10.6153 5.72244C10.8121 5.92016 10.9228 6.18847 10.9228 6.4679C10.9228 7.04643 10.4483 7.52258 9.87169 7.52258C9.29512 7.52258 8.82057 7.04643 8.82057 6.4679C8.82057 6.18847 8.93129 5.92016 9.12806 5.72244ZM10.3178 6.91649C10.4362 6.7978 10.5028 6.63664 10.5028 6.46874C10.5028 6.30083 10.4362 6.13968 10.3178 6.02099C10.1996 5.90258 10.0392 5.83593 9.87211 5.83593C9.52622 5.83593 9.24144 6.12154 9.24144 6.46874C9.24144 6.81594 9.52622 7.10155 9.87211 7.10155C10.0392 7.10155 10.1996 7.03489 10.3178 6.91649ZM10.2188 6.81693C10.1269 6.90918 10.002 6.96093 9.87211 6.96093C9.60303 6.96093 9.38159 6.73874 9.38159 6.46874C9.38159 6.19874 9.60303 5.97655 9.87211 5.97655C10.002 5.97655 10.1269 6.0283 10.2188 6.12055C10.3109 6.2128 10.3626 6.3381 10.3626 6.46874C10.3626 6.59938 10.3109 6.72468 10.2188 6.81693Z" fill="#716C6C"/>
<path d="M11.6011 8.20405C11.3912 8.41485 11.2732 8.70102 11.2732 8.99915C11.2732 9.61621 11.7793 10.1241 12.3944 10.1241C13.0095 10.1241 13.5156 9.61621 13.5156 8.99915C13.5156 8.70102 13.3976 8.41485 13.1876 8.20405C12.9774 7.99283 12.6918 7.87415 12.3944 7.87415C12.097 7.87415 11.8114 7.99283 11.6011 8.20405ZM12.791 9.39796C12.6859 9.50329 12.5434 9.56249 12.3948 9.56249C12.0873 9.56249 11.8342 9.30852 11.8342 8.99999C11.8342 8.69146 12.0873 8.43749 12.3948 8.43749C12.5434 8.43749 12.6859 8.49669 12.791 8.60202C12.8963 8.70749 12.9554 8.85079 12.9554 8.99999C12.9554 9.14919 12.8963 9.29249 12.791 9.39796Z" fill="#716C6C"/>
<path fill-rule="evenodd" clip-rule="evenodd" d="M11.5515 8.15441C11.3286 8.37843 11.2031 8.68246 11.2031 8.99915C11.2031 9.65488 11.7409 10.1945 12.3944 10.1945C13.0479 10.1945 13.5857 9.65488 13.5857 8.99915C13.5857 8.68246 13.4602 8.37843 13.2373 8.15441C13.0139 7.92997 12.7104 7.80383 12.3944 7.80383C12.0784 7.80383 11.7749 7.92997 11.5515 8.15441ZM11.6508 8.25369C11.8478 8.05583 12.1155 7.94446 12.3944 7.94446C12.6733 7.94446 12.941 8.05583 13.138 8.25369C13.3348 8.45141 13.4455 8.71972 13.4455 8.99915C13.4455 9.57768 12.971 10.0538 12.3944 10.0538C11.8178 10.0538 11.3433 9.57768 11.3433 8.99915C11.3433 8.71972 11.454 8.45141 11.6508 8.25369ZM12.8405 9.44774C12.9589 9.32905 13.0255 9.1679 13.0255 8.99999C13.0255 8.83208 12.9589 8.67093 12.8405 8.55224C12.7224 8.43383 12.5619 8.36718 12.3948 8.36718C12.0489 8.36718 11.7641 8.65279 11.7641 8.99999C11.7641 9.34719 12.0489 9.6328 12.3948 9.6328C12.5619 9.6328 12.7224 9.56615 12.8405 9.44774ZM12.7416 9.34818C12.6496 9.44043 12.5247 9.49218 12.3948 9.49218C12.1257 9.49218 11.9043 9.26999 11.9043 8.99999C11.9043 8.72999 12.1257 8.5078 12.3948 8.5078C12.5247 8.5078 12.6496 8.55955 12.7416 8.6518C12.8336 8.74405 12.8853 8.86935 12.8853 8.99999C12.8853 9.13063 12.8336 9.25593 12.7416 9.34818Z" fill="#716C6C"/>
<path d="M9.07844 10.7353C8.86849 10.9461 8.75049 11.2323 8.75049 11.5304C8.75049 12.1475 9.25657 12.6554 9.87169 12.6554C10.4868 12.6554 10.9929 12.1475 10.9929 11.5304C10.9929 11.2323 10.8749 10.9461 10.6649 10.7353C10.4547 10.5241 10.1691 10.4054 9.87169 10.4054C9.57429 10.4054 9.28866 10.5241 9.07844 10.7353ZM10.2683 11.9292C10.1632 12.0345 10.0207 12.0937 9.87211 12.0937C9.56462 12.0937 9.31151 11.8398 9.31151 11.5312C9.31151 11.2227 9.56462 10.9687 9.87211 10.9687C10.0207 10.9687 10.1632 11.0279 10.2683 11.1333C10.3736 11.2387 10.4327 11.382 10.4327 11.5312C10.4327 11.6804 10.3736 11.8237 10.2683 11.9292Z" fill="#716C6C"/>
<path fill-rule="evenodd" clip-rule="evenodd" d="M9.02883 10.6857C8.80585 10.9097 8.68042 11.2137 8.68042 11.5304C8.68042 12.1861 9.21817 12.7257 9.87169 12.7257C10.5252 12.7257 11.063 12.1861 11.063 11.5304C11.063 11.2137 10.9375 10.9097 10.7146 10.6857C10.4912 10.4612 10.1877 10.3351 9.87169 10.3351C9.55566 10.3351 9.25223 10.4612 9.02883 10.6857ZM9.12806 10.7849C9.32511 10.5871 9.5928 10.4757 9.87169 10.4757C10.1506 10.4757 10.4183 10.5871 10.6153 10.7849C10.8121 10.9827 10.9228 11.251 10.9228 11.5304C10.9228 12.1089 10.4483 12.5851 9.87169 12.5851C9.29512 12.5851 8.82057 12.1089 8.82057 11.5304C8.82057 11.251 8.93129 10.9827 9.12806 10.7849ZM10.3178 11.979C10.4362 11.8603 10.5028 11.6991 10.5028 11.5312C10.5028 11.3633 10.4362 11.2022 10.3178 11.0835C10.1996 10.9651 10.0392 10.8984 9.87211 10.8984C9.52622 10.8984 9.24144 11.184 9.24144 11.5312C9.24144 11.8784 9.52622 12.1641 9.87211 12.1641C10.0392 12.1641 10.1996 12.0974 10.3178 11.979ZM10.2188 11.8794C10.1269 11.9717 10.002 12.0234 9.87211 12.0234C9.60303 12.0234 9.38159 11.8012 9.38159 11.5312C9.38159 11.2612 9.60303 11.0391 9.87211 11.0391C10.002 11.0391 10.1269 11.0908 10.2188 11.1831C10.3109 11.2753 10.3626 11.4006 10.3626 11.5312C10.3626 11.6619 10.3109 11.7872 10.2188 11.8794Z" fill="#716C6C"/>
</g>
<defs>
<clipPath id="clip0_1173_17213">
<rect width="17.9392" height="18" fill="white" transform="translate(0.9021)"/>
</clipPath>
</defs>
</svg>
