<svg width="30" height="30" viewBox="0 0 30 30" fill="none" xmlns="http://www.w3.org/2000/svg">
<circle cx="15" cy="15" r="14" stroke="#C4C4C4" stroke-width="2"/>
<path fill-rule="evenodd" clip-rule="evenodd" d="M19.1719 9.41524L19.2945 9.29262C19.6847 8.90246 20.3172 8.90246 20.7074 9.29262C21.0975 9.68278 21.0975 10.3153 20.7074 10.7055L20.5848 10.8281C21.0202 11.3156 21.0039 12.0642 20.536 12.5322L12.0171 21.0511C11.964 21.1042 11.8976 21.1418 11.8248 21.16L8.5142 21.9876C8.37318 22.0229 8.224 21.9816 8.12122 21.8788C8.01843 21.776 7.97711 21.6268 8.01236 21.4858L8.84001 18.1752C8.85821 18.1024 8.89583 18.036 8.94887 17.9829L16.9285 10.0034C16.767 9.88947 16.5422 9.90478 16.3977 10.0493L13.6724 12.7746C13.5107 12.9362 13.2487 12.9362 13.0871 12.7746C12.9255 12.613 12.9255 12.351 13.0871 12.1894L15.8125 9.46403C16.2809 8.9956 17.0305 8.97976 17.518 9.4165C17.9879 8.99547 18.7015 8.99505 19.1719 9.41524ZM18.6383 10.0493C18.4766 9.88766 18.2146 9.88766 18.053 10.0493L9.61515 18.4871L8.98258 21.0174L11.5129 20.3848L19.9507 11.947C20.1123 11.7854 20.1123 11.5234 19.9507 11.3617L18.6383 10.0493Z" fill="#716C6C"/>
</svg>
