<svg width="30" height="30" viewBox="0 0 30 30" fill="none" xmlns="http://www.w3.org/2000/svg">
<circle cx="15" cy="15" r="14" stroke="#C4C4C4" stroke-width="2"/>
<path d="M13.3125 13.7667C13.5541 13.7667 13.75 13.9607 13.75 14.2V19.4C13.75 19.6393 13.5541 19.8333 13.3125 19.8333C13.0709 19.8333 12.875 19.6393 12.875 19.4V14.2C12.875 13.9607 13.0709 13.7667 13.3125 13.7667Z" fill="#716C6C"/>
<path d="M15.5 13.7667C15.7416 13.7667 15.9375 13.9607 15.9375 14.2V19.4C15.9375 19.6393 15.7416 19.8333 15.5 19.8333C15.2584 19.8333 15.0625 19.6393 15.0625 19.4V14.2C15.0625 13.9607 15.2584 13.7667 15.5 13.7667Z" fill="#716C6C"/>
<path d="M18.125 14.2C18.125 13.9607 17.9291 13.7667 17.6875 13.7667C17.4459 13.7667 17.25 13.9607 17.25 14.2V19.4C17.25 19.6393 17.4459 19.8333 17.6875 19.8333C17.9291 19.8333 18.125 19.6393 18.125 19.4V14.2Z" fill="#716C6C"/>
<path fill-rule="evenodd" clip-rule="evenodd" d="M21.1875 11.6C21.1875 12.0786 20.7957 12.4667 20.3125 12.4667H19.875V20.2667C19.875 21.224 19.0915 22 18.125 22H12.875C11.9085 22 11.125 21.224 11.125 20.2667V12.4667H10.6875C10.2043 12.4667 9.8125 12.0786 9.8125 11.6V10.7333C9.8125 10.2547 10.2043 9.86667 10.6875 9.86667H13.75C13.75 9.38802 14.1418 9 14.625 9H16.375C16.8582 9 17.25 9.38802 17.25 9.86667H20.3125C20.7957 9.86667 21.1875 10.2547 21.1875 10.7333V11.6ZM12.1033 12.4667L12 12.5178V20.2667C12 20.7453 12.3918 21.1333 12.875 21.1333H18.125C18.6082 21.1333 19 20.7453 19 20.2667V12.5178L18.8967 12.4667H12.1033ZM10.6875 11.6V10.7333H20.3125V11.6H10.6875Z" fill="#716C6C"/>
</svg>
