<svg width="63" height="63" viewBox="0 0 63 63" fill="none" xmlns="http://www.w3.org/2000/svg">
<g clip-path="url(#clip0_233_11943)">
<path fill-rule="evenodd" clip-rule="evenodd" d="M15.75 5.90625H11.8125C7.46326 5.90625 3.9375 9.43201 3.9375 13.7812V55.125C3.9375 59.4742 7.46326 63 11.8125 63H51.1875C55.5367 63 59.0625 59.4742 59.0625 55.125V13.7812C59.0625 9.43201 55.5367 5.90625 51.1875 5.90625H47.25V9.84375H51.1875C53.3621 9.84375 55.125 11.6066 55.125 13.7812V55.125C55.125 57.2996 53.3621 59.0625 51.1875 59.0625H11.8125C9.63788 59.0625 7.875 57.2996 7.875 55.125V13.7812C7.875 11.6066 9.63788 9.84375 11.8125 9.84375H15.75V5.90625Z" fill="#212121"/>
<path fill-rule="evenodd" clip-rule="evenodd" d="M37.4062 3.9375H25.5938C24.5064 3.9375 23.625 4.81894 23.625 5.90625V9.84375C23.625 10.9311 24.5064 11.8125 25.5938 11.8125H37.4062C38.4936 11.8125 39.375 10.9311 39.375 9.84375V5.90625C39.375 4.81894 38.4936 3.9375 37.4062 3.9375ZM25.5938 0C22.3318 0 19.6875 2.64432 19.6875 5.90625V9.84375C19.6875 13.1057 22.3318 15.75 25.5938 15.75H37.4062C40.6682 15.75 43.3125 13.1057 43.3125 9.84375V5.90625C43.3125 2.64432 40.6682 0 37.4062 0H25.5938Z" fill="#212121"/>
</g>
<path fill-rule="evenodd" clip-rule="evenodd" d="M42.7359 28.1391C43.5047 28.908 43.5047 30.1545 42.7359 30.9234L30.9234 42.7359C30.5542 43.1051 30.0534 43.3125 29.5312 43.3125C29.0091 43.3125 28.5083 43.1051 28.1391 42.7359L22.2329 36.8296C21.464 36.0608 21.464 34.8142 22.2329 34.0454C23.0017 33.2765 24.2483 33.2765 25.0171 34.0454L29.5312 38.5595L39.9516 28.1391C40.7205 27.3703 41.967 27.3703 42.7359 28.1391Z" fill="#212121"/>
<defs>
<clipPath id="clip0_233_11943">
<rect width="55.125" height="63" fill="white" transform="translate(3.9375)"/>
</clipPath>
</defs>
</svg>
