<?xml version="1.0" encoding="utf-8"?>
<!-- Generator: Adobe Illustrator 24.2.1, SVG Export Plug-In . SVG Version: 6.00 Build 0)  -->
<svg version="1.1" id="Capa_1" xmlns="http://www.w3.org/2000/svg" xmlns:xlink="http://www.w3.org/1999/xlink" x="0px" y="0px"
	 width="8px" height="8px" viewBox="0 0 8 8" style="enable-background:new 0 0 8 8;" xml:space="preserve">
<style type="text/css">
	.st0{fill:#FFFFFF;}
	.st1{fill:#736C6D;}
</style>
<circle class="st0" cx="4" cy="4" r="4"/>
<path class="st1" d="M4,1.4c0.4,0,0.7,0.3,0.7,0.7v1.4H3.3V2.2C3.3,1.8,3.6,1.4,4,1.4z M5,3.7V2.2C5,1.5,4.5,1,4,1S3,1.5,3,2.2v1.4
	c-0.4,0-0.7,0.3-0.7,0.6V6c0,0.4,0.3,0.7,0.7,0.7h2.2c0.4,0,0.7-0.3,0.7-0.7V4.3C5.8,3.9,5.4,3.7,5,3.7z"/>
</svg>
