<svg width="18" height="18" viewBox="0 0 18 18" fill="none" xmlns="http://www.w3.org/2000/svg">
<path fill-rule="evenodd" clip-rule="evenodd" d="M2.55015 1.10154C3.33286 0.318821 4.62447 0.399234 5.30406 1.27299L7.1959 3.70535C7.54307 4.15172 7.66575 4.73291 7.5286 5.28151L6.95139 7.59034C6.89046 7.83409 6.96188 8.09195 7.13954 8.26961L9.73052 10.8606C9.90818 11.0382 10.166 11.1097 10.4098 11.0487L12.7186 10.4715C13.2672 10.3344 13.8484 10.4571 14.2948 10.8042L16.7271 12.6961C17.6009 13.3757 17.6813 14.6673 16.8986 15.45L15.8081 16.5405C15.0279 17.3207 13.861 17.6632 12.7734 17.2809C10.0732 16.3315 7.53852 14.7773 5.38069 12.6194C3.22286 10.4616 1.66859 7.92697 0.719237 5.22669C0.336883 4.13915 0.679466 2.97222 1.45966 2.19203L2.55015 1.10154Z" fill="black"/>
</svg>
