<svg width="10" height="16" viewBox="0 0 10 16" fill="none" xmlns="http://www.w3.org/2000/svg">
<path fill-rule="evenodd" clip-rule="evenodd" d="M1 4C1 1.79086 2.79086 0 5 0C7.20914 0 9 1.79086 9 4C9 6.03981 7.47316 7.723 5.5 7.96905V13.5C5.5 13.7761 5.27614 14 5 14C4.72386 14 4.5 13.7761 4.5 13.5V7.96905C2.52684 7.723 1 6.03981 1 4ZM3.49328 12.5742C3.53841 12.8467 3.35414 13.1041 3.08171 13.1492C2.37026 13.2671 1.80258 13.4439 1.42743 13.6415C1.23962 13.7405 1.1222 13.8332 1.05719 13.9069C1.02598 13.9422 1.01158 13.9679 1.00527 13.9824C1.00219 13.9895 1.00098 13.9941 1.00049 13.9963C1.00003 13.9984 1 14 1 14C1 14 0.999951 14.0025 1.00153 14.0077C1.00322 14.0132 1.00741 14.0243 1.01754 14.0407C1.03876 14.0753 1.08204 14.1273 1.16312 14.1912C1.32821 14.3213 1.59808 14.4603 1.97613 14.5863C2.72701 14.8366 3.79615 15 5 15C6.20386 15 7.27299 14.8366 8.02387 14.5863C8.40192 14.4603 8.67179 14.3213 8.83688 14.1912C8.91796 14.1273 8.96124 14.0753 8.98246 14.0407C8.99259 14.0243 8.99677 14.0132 8.99847 14.0077C9.00001 14.0026 9 14.0001 9 14.0001C9 14.0001 8.99997 13.9984 8.99951 13.9963C8.99902 13.9941 8.99781 13.9895 8.99473 13.9824C8.98842 13.9679 8.97402 13.9422 8.94281 13.9069C8.8778 13.8332 8.76038 13.7405 8.57257 13.6415C8.19742 13.4439 7.62974 13.2671 6.91829 13.1492C6.64586 13.1041 6.46159 12.8467 6.50672 12.5742C6.55185 12.3018 6.80928 12.1175 7.08171 12.1627C7.85198 12.2903 8.5343 12.491 9.03872 12.7568C9.50088 13.0003 10 13.4014 10 14C10 14.426 9.74055 14.7522 9.45585 14.9766C9.16552 15.2054 8.77638 15.3896 8.34009 15.535C7.46229 15.8276 6.28143 16 5 16C3.71857 16 2.53771 15.8276 1.65991 15.535C1.22362 15.3896 0.834481 15.2054 0.544145 14.9766C0.259446 14.7522 0 14.426 0 14C0 13.4014 0.499119 13.0003 0.961283 12.7568C1.4657 12.491 2.14802 12.2903 2.91829 12.1627C3.19072 12.1175 3.44815 12.3018 3.49328 12.5742Z" fill="black"/>
</svg>
