<svg width="19" height="14" viewBox="0 0 19 14" fill="none" xmlns="http://www.w3.org/2000/svg">
<path d="M0.614326 6.89869C0.614326 6.13739 1.27772 5.51953 2.09843 5.51953L16.9395 5.51953C17.7602 5.51953 18.4236 6.13739 18.4236 6.89869C18.4236 7.65998 17.7602 8.27785 16.9395 8.27785L2.09843 8.27785C1.27772 8.27785 0.614326 7.65998 0.614326 6.89869Z" fill="#253D95"/>
<path d="M0.000107441 6.89618L6.98579 0.404441C7.56608 -0.134814 8.50403 -0.134814 9.08432 0.404441C9.6646 0.943695 9.6646 1.81533 9.08432 2.35458L4.19716 6.89618L9.08432 11.4378C9.6646 11.977 9.6646 12.8487 9.08432 13.3879C8.50403 13.9272 7.56608 13.9272 6.98579 13.3879L0.000107441 6.89618Z" fill="#253D95"/>
</svg>
