<svg width="127" height="127" viewBox="0 0 127 127" fill="none" xmlns="http://www.w3.org/2000/svg">
<path d="M115.929 34.6488L83.0543 16.3288C79.8476 14.0933 75.5619 14.0933 72.3552 16.3288L39.4808 34.6488C37.2663 36.2477 35.9513 38.8209 35.9513 41.5524C35.9513 44.284 37.2663 46.8571 39.4808 48.456L39.8096 48.6652L50.7179 54.8217V83.3925C50.7179 88.0846 57.4721 98.3354 77.6151 98.3354C97.7581 98.3354 104.512 88.0846 104.512 83.3925V54.8217L113.478 49.8308V83.3925C113.478 85.0333 114.826 86.3811 116.467 86.3811C118.107 86.3811 119.455 85.0333 119.455 83.3925V41.5524C119.446 38.8238 118.134 36.2566 115.929 34.6488ZM98.5351 83.3925C98.5351 84.5581 94.3213 92.3583 77.6151 92.3583C60.9089 92.3583 56.695 84.5581 56.695 83.3925V58.139L72.2356 66.776C75.4663 69.0055 79.7639 69.0055 82.9945 66.776L98.5351 58.139V83.3925ZM112.492 43.5548L79.6174 61.8449C78.4399 62.6817 76.85 62.6817 75.6725 61.8449L42.7981 43.5548C42.1825 43.0736 41.8209 42.3354 41.8209 41.5524C41.8209 40.7694 42.1825 40.0312 42.7981 39.5501C43.4138 39.0689 75.6725 21.3496 75.6725 21.26C76.8739 20.4232 78.4758 20.4232 79.6772 21.26C80.8786 22.0968 112.552 39.5501 112.552 39.5501C113.167 40.0312 113.529 40.7694 113.529 41.5524C113.529 42.3354 113.167 43.0736 112.552 43.5548H112.492Z" fill="#C4C4C4"/>
<path d="M31.6088 57.0217C19.1625 57.0217 9.03818 67.1474 9.03818 79.5931C9.03818 92.0388 19.1625 102.163 31.6088 102.163C44.0545 102.163 54.1794 92.0388 54.1794 79.5931C54.1794 67.1474 44.0546 57.0217 31.6088 57.0217ZM31.6088 98.6027C21.1261 98.6027 12.5983 90.075 12.5983 79.593C12.5983 69.1097 21.1261 60.5818 31.6088 60.5818C42.0915 60.5818 50.6193 69.1097 50.6193 79.593C50.6193 90.075 42.0915 98.6027 31.6088 98.6027Z" fill="#C4C4C4"/>
<path fill-rule="evenodd" clip-rule="evenodd" d="M31.5996 55.9297C18.5515 55.9297 7.93753 66.5451 7.93753 79.5925C7.93753 92.64 18.5515 103.254 31.5996 103.254C44.6471 103.254 55.2617 92.64 55.2617 79.5925C55.2617 66.5451 44.6472 55.9297 31.5996 55.9297ZM31.5996 58.1126C43.4436 58.1126 53.0788 67.7487 53.0788 79.5925C53.0788 91.4364 43.4435 101.071 31.5996 101.071C19.7551 101.071 10.1204 91.4364 10.1204 79.5925C10.1204 67.7487 19.7551 58.1126 31.5996 58.1126ZM31.5996 99.6936C42.6841 99.6936 51.7016 90.6763 51.7016 79.5924C51.7016 68.5073 42.6841 59.4898 31.5996 59.4898C20.5151 59.4898 11.4977 68.5073 11.4977 79.5924C11.4977 90.6763 20.5151 99.6936 31.5996 99.6936ZM31.5996 97.5107C21.7187 97.5107 13.6805 89.4727 13.6805 79.5924C13.6805 69.7109 21.7187 61.6727 31.5996 61.6727C41.4805 61.6727 49.5187 69.7109 49.5187 79.5924C49.5187 89.4727 41.4805 97.5107 31.5996 97.5107Z" fill="#C4C4C4"/>
<path d="M28.0308 75.169C28.0308 73.7411 30.1193 73.4973 31.9309 73.4973C33.6383 73.4973 35.9714 74.2975 37.9222 75.3088L38.3045 71.3731C37.3289 70.8153 35.0657 70.1534 32.7668 70.0151L33.3239 66.0095H29.5972L30.1551 70.0151C25.3492 70.4672 23.7815 73.2533 23.7815 75.587C23.7815 81.4726 34.7512 80.2202 34.7512 83.8407C34.7512 85.2002 33.4637 85.6866 31.1993 85.6866C28.1351 85.6866 25.8356 84.6081 24.6523 83.4928L24.0597 87.9163C25.1752 88.5782 27.4376 89.1701 30.1551 89.3099L29.5972 93.1758H33.3239L32.7668 89.2744C38.4087 88.7865 39.4186 85.7909 39.4186 83.8066C39.4187 76.8066 28.0308 78.547 28.0308 75.169Z" fill="#C4C4C4"/>
</svg>
