<?xml version="1.0" encoding="utf-8"?>
<!-- Generator: Adobe Illustrator 26.0.2, SVG Export Plug-In . SVG Version: 6.00 Build 0)  -->
<svg version="1.1" id="Capa_1" xmlns="http://www.w3.org/2000/svg" xmlns:xlink="http://www.w3.org/1999/xlink" x="0px" y="0px"
	 viewBox="0 0 127 127" style="enable-background:new 0 0 127 127;" xml:space="preserve">
<style type="text/css">
	.st0{fill:#C4C4C4;}
	.st1{fill-rule:evenodd;clip-rule:evenodd;fill:#C4C4C4;}
</style>
<path class="st0" d="M113.5,43.2L82,25.6c-3.1-2.1-7.2-2.1-10.3,0L40.1,43.2c-2.1,1.5-3.4,4-3.4,6.6c0,2.6,1.3,5.1,3.4,6.6l0.3,0.2
	l10.5,5.9V90c0,4.5,6.5,14.3,25.8,14.3s25.8-9.8,25.8-14.3V62.6l8.6-4.8V90c0,1.6,1.3,2.9,2.9,2.9c1.6,0,2.9-1.3,2.9-2.9V49.8
	C116.9,47.2,115.6,44.7,113.5,43.2z M96.8,90c0,1.1-4,8.6-20.1,8.6S56.7,91.1,56.7,90V65.7L71.6,74c3.1,2.1,7.2,2.1,10.3,0l14.9-8.3
	V90z M110.2,51.8L78.7,69.3c-1.1,0.8-2.7,0.8-3.8,0L43.3,51.8c-0.6-0.5-0.9-1.2-0.9-1.9c0-0.8,0.3-1.5,0.9-1.9
	c0.6-0.5,31.6-17.5,31.6-17.6c1.2-0.8,2.7-0.8,3.8,0c1.2,0.8,31.6,17.6,31.6,17.6c0.6,0.5,0.9,1.2,0.9,1.9
	C111.2,50.6,110.9,51.3,110.2,51.8L110.2,51.8z"/>
<path class="st0" d="M32.6,64.7c-11.9,0-21.7,9.7-21.7,21.7S20.6,108,32.6,108c11.9,0,21.7-9.7,21.7-21.7S44.5,64.7,32.6,64.7z
	 M32.6,104.6c-10.1,0-18.2-8.2-18.2-18.2c0-10.1,8.2-18.2,18.2-18.2s18.2,8.2,18.2,18.2C50.8,96.4,42.6,104.6,32.6,104.6z"/>
<path class="st1" d="M32.6,63.6c-12.5,0-22.7,10.2-22.7,22.7c0,12.5,10.2,22.7,22.7,22.7c12.5,0,22.7-10.2,22.7-22.7
	C55.3,73.8,45.1,63.6,32.6,63.6z M32.6,65.7c11.4,0,20.6,9.2,20.6,20.6c0,11.4-9.2,20.6-20.6,20.6C21.2,107,12,97.7,12,86.3
	C12,75,21.2,65.7,32.6,65.7z M32.6,105.6c10.6,0,19.3-8.7,19.3-19.3c0-10.6-8.7-19.3-19.3-19.3s-19.3,8.7-19.3,19.3
	C13.3,97,21.9,105.6,32.6,105.6z M32.6,103.5c-9.5,0-17.2-7.7-17.2-17.2c0-9.5,7.7-17.2,17.2-17.2s17.2,7.7,17.2,17.2
	C49.8,95.8,42.1,103.5,32.6,103.5z"/>
<path class="st0" d="M29.2,82.1c0-1.4,2-1.6,3.7-1.6c1.6,0,3.9,0.8,5.8,1.7l0.4-3.8c-0.9-0.5-3.1-1.2-5.3-1.3l0.5-3.8h-3.6l0.5,3.8
	c-4.6,0.4-6.1,3.1-6.1,5.3c0,5.6,10.5,4.4,10.5,7.9c0,1.3-1.2,1.8-3.4,1.8c-2.9,0-5.1-1-6.3-2.1l-0.6,4.2c1.1,0.6,3.2,1.2,5.9,1.3
	l-0.5,3.7h3.6l-0.5-3.7c5.4-0.5,6.4-3.3,6.4-5.2C40.1,83.7,29.2,85.3,29.2,82.1z"/>
</svg>
