<svg width="47" height="48" viewBox="0 0 47 48" fill="none" xmlns="http://www.w3.org/2000/svg">
<path fill-rule="evenodd" clip-rule="evenodd" d="M6.65847 2.93743C8.70222 0.85019 12.0748 1.06462 13.8492 3.39464L18.789 9.88095C19.6955 11.0713 20.0159 12.6211 19.6578 14.084L18.1506 20.2409C17.9915 20.8909 18.178 21.5785 18.6419 22.0523L25.4072 28.9616C25.8711 29.4353 26.5444 29.6258 27.1808 29.4633L33.2095 27.9241C34.6419 27.5583 36.1595 27.8855 37.325 28.8113L43.6762 33.8562C45.9576 35.6684 46.1676 39.1127 44.1238 41.1999L41.2765 44.1079C39.2393 46.1884 36.1923 47.102 33.3526 46.0824C26.3019 43.5508 19.6837 39.406 14.0493 33.6518C8.41501 27.8976 4.35663 21.1386 1.87776 13.9378C0.879391 11.0377 1.77391 7.92591 3.81108 5.8454L6.65847 2.93743Z" fill="black"/>
</svg>
