<?xml version="1.0" encoding="utf-8"?>
<!-- Generator: Adobe Illustrator 24.2.1, SVG Export Plug-In . SVG Version: 6.00 Build 0)  -->
<svg version="1.1" id="Capa_1" xmlns="http://www.w3.org/2000/svg" xmlns:xlink="http://www.w3.org/1999/xlink" x="0px" y="0px"
	 width="85px" height="75px" viewBox="0 0 85 75" style="enable-background:new 0 0 85 75;" xml:space="preserve">
<style type="text/css">
	.st0{fill:#2E1A4A;}
</style>
<g id="XMLID_323_">
	<path id="XMLID_328_" class="st0" d="M49.1,52.6C49.1,52.6,49.1,52.5,49.1,52.6c-1-3.1-1.1-6.8,1.8-10.8c2.3-3.2,4.7-6,4.1-11
		c0-0.1,0-0.6,0.5-0.8c0.6-0.2,0.9,0.3,1,0.3c2.6,4.3,3.2,9,1.8,12.6c-1.8,4.9-5.7,6.2-7.8,9.9c-0.1,0.2-0.4,0.4-0.7,0.4
		C49.5,53.1,49.2,52.9,49.1,52.6z"/>
	<path id="XMLID_327_" class="st0" d="M35.4,55C27,51.8,20,40.8,28.9,28.9c7.8-10.3,13.3-16.3,11.4-23.3c0-0.1-0.1-0.6,0.4-0.9
		c0.7-0.4,1.1,0.3,1.1,0.4c4.5,7.5,0.4,16.4-6.2,26.6c-3.7,5.8-5.8,14.8,0.6,22.1c0.3,0.4,0.3,0.8,0.1,1.1
		C36.2,55,35.8,55.2,35.4,55z"/>
	<path id="XMLID_325_" class="st0" d="M11,61.1c1.1-0.2,5.3-1,13.8-3.3c5.4-1.4,11.5-0.4,14,2.1c2.2,2.3,3,5.1,3.2,5.5
		c0.3,0.7,0.5,2.2,0.5,2.2s0.9-2.4,1.2-2.9c0.2-0.3,1.3-0.3,2.2-2.6c0.6-1.7,0-4-3-6.2c-6.6-4.6-7.4-15.8-1.7-24.1
		c5.3-7.8,7.2-12.9,6.5-17c0-0.1-0.1-0.6,0.4-0.9c0.5-0.3,0.9,0.1,1,0.2c6.8,9,1.3,17.9-1.9,22.7c-3.2,4.6-4.2,8.5-3.2,13
		c0.2,1,0.4,2.4,1.2,4c0.8,1.2,2.1,4.6,4.2,3.9c3.3-1.2,6.5-0.4,12,0.7c7.8,1.7,11.5,2.4,12.5,2.6c0.3,0.1,0.5,0.3,0.6,0.4
		c0,0.1,5.6,7.7,5.6,7.7s0.3,0.4,0.1,0.8c-0.1,0.2-0.4,0.5-0.9,0.4c-4.7-0.9-16.3-3.1-21.1-3.8c-6.3-0.9-12.1-0.1-14.9,3.1
		C43,69.8,42.8,70,42.5,70c-0.4,0-0.5-0.2-0.7-0.4c-2.7-3.2-8.4-4-14.4-3.2c-4.7,0.7-16.6,2.9-21.4,3.8c-0.6,0.1-0.9-0.2-1-0.5
		c-0.1-0.4,0.2-0.7,0.2-0.7l5.4-7.8C10.5,61.3,10.6,61.1,11,61.1z"/>
</g>
</svg>
