<?xml version="1.0" encoding="utf-8"?>
<!-- Generator: Adobe Illustrator 24.2.1, SVG Export Plug-In . SVG Version: 6.00 Build 0)  -->
<svg version="1.1" id="Capa_1" xmlns="http://www.w3.org/2000/svg" xmlns:xlink="http://www.w3.org/1999/xlink" x="0px" y="0px"
	 width="8px" height="8px" viewBox="0 0 8 8" style="enable-background:new 0 0 8 8;" xml:space="preserve">
<style type="text/css">
	.st0{fill:#FFFFFF;stroke:#736C6D;stroke-width:0.5409;stroke-miterlimit:10;}
	.st1{fill:#736C6D;}
</style>
<circle class="st0" cx="4" cy="4" r="3.7"/>
<path class="st1" d="M5.1,1.7C4.7,1.7,4.5,2,4.5,2.3v1.3c0.4,0,0.6,0.3,0.6,0.6v1.7c0,0.4-0.3,0.6-0.6,0.6H2.5
	c-0.4,0-0.6-0.3-0.6-0.6V4.4c0-0.4,0.3-0.7,0.6-0.7h1.7V2.3c0-0.6,0.5-1,1-1s1,0.5,1,1v1.3c0,0.1-0.1,0.2-0.2,0.2
	c-0.2,0-0.2-0.1-0.2-0.2V2.3C5.9,2,5.5,1.7,5.1,1.7z"/>
</svg>
