<svg width="36" height="36" viewBox="0 0 36 36" fill="none" xmlns="http://www.w3.org/2000/svg">
<path fill-rule="evenodd" clip-rule="evenodd" d="M14.175 24.4125C15.3 25.0875 16.65 25.425 18 25.425C22.1625 25.425 25.425 22.05 25.425 18.1125C25.425 16.0875 24.75 14.2875 23.2875 12.825C21.825 11.475 20.025 10.6875 18 10.6875C13.95 10.6875 10.575 14.0625 10.575 18.1125C10.575 19.4625 10.9125 20.8125 11.7 22.05L11.925 22.3875L11.1375 25.0875L13.95 24.3L14.175 24.4125ZM20.475 19.125C20.7 19.125 21.825 19.6875 22.05 19.8C22.085 19.8175 22.1201 19.8323 22.1547 19.8469C22.3423 19.9261 22.5175 20.0001 22.6125 20.475C22.725 20.475 22.725 20.925 22.5 21.4875C22.3875 21.9375 21.4875 22.5 21.0375 22.5C20.9613 22.5 20.8883 22.5065 20.8103 22.5134C20.4279 22.5472 19.926 22.5916 18.3375 21.9375C16.366 21.1489 14.9991 19.2374 14.6152 18.7006C14.561 18.6248 14.5264 18.5764 14.5125 18.5625C14.4933 18.5242 14.4546 18.4631 14.4035 18.3824C14.1547 17.9895 13.6125 17.1335 13.6125 16.2C13.6125 15.075 14.175 14.5125 14.4 14.2875C14.625 14.0625 14.85 14.0625 14.9625 14.0625H15.4125C15.525 14.0625 15.75 14.0625 15.8625 14.4C16.0875 14.85 16.5375 15.975 16.5375 16.0875C16.5375 16.125 16.55 16.1625 16.5625 16.2C16.5875 16.275 16.6125 16.35 16.5375 16.425C16.4813 16.4812 16.4531 16.5375 16.425 16.5938C16.3969 16.65 16.3688 16.7063 16.3125 16.7625L15.975 17.1C15.8625 17.2125 15.75 17.325 15.8625 17.55C15.975 17.775 16.425 18.5625 17.1 19.125C17.8595 19.7896 18.4588 20.0535 18.7626 20.1874C18.8188 20.2121 18.8649 20.2324 18.9 20.25C19.125 20.25 19.2375 20.25 19.35 20.1375C19.4063 20.025 19.5469 19.8563 19.6875 19.6875C19.8281 19.5187 19.9687 19.35 20.025 19.2375C20.1375 19.0125 20.25 19.0125 20.475 19.125Z" fill="#C4C4C4"/>
<path fill-rule="evenodd" clip-rule="evenodd" d="M0 5.625C0 2.5184 2.5184 0 5.625 0H30.375C33.4816 0 36 2.5184 36 5.625V30.375C36 33.4816 33.4816 36 30.375 36H5.625C2.5184 36 0 33.4816 0 30.375V5.625ZM18 9C20.3625 9 22.6125 9.9 24.3 11.5875C25.9875 13.275 27 15.525 27 17.8875C27 22.8375 22.95 26.8875 18 26.8875C16.5375 26.8875 15.075 26.4375 13.725 25.7625L9 27L10.2375 22.5C9.45001 21.15 9 19.575 9 18C9 13.05 13.05 9 18 9Z" fill="#C4C4C4"/>
</svg>
